<svg version="1.1" id="Layer_1" xmlns="http://www.w3.org/2000/svg" xmlns:xlink="http://www.w3.org/1999/xlink" x="0px" y="0px"
	 width="100%" viewBox="0 0 96 62" enable-background="new 0 0 96 62" xml:space="preserve">
<path fill="#F2F2F2" opacity="1.000000" stroke="none" 
	d="
M61.000000,63.000000 
	C40.666672,63.000000 20.833340,63.000000 1.000008,63.000000 
	C1.000005,42.333340 1.000005,21.666681 1.000003,1.000016 
	C32.999989,1.000011 64.999977,1.000011 96.999969,1.000005 
	C96.999985,21.666651 96.999985,42.333302 96.999992,62.999977 
	C85.166664,63.000000 73.333336,63.000000 61.000000,63.000000 
M74.676620,51.800873 
	C76.793610,46.542942 79.382309,41.783669 85.841080,41.628956 
	C85.841080,34.875008 85.841080,28.570276 85.841080,22.287754 
	C80.772087,21.658916 77.233978,19.491852 75.704529,14.400231 
	C75.387169,13.343724 73.415497,12.111784 72.195602,12.100380 
	C55.895493,11.948005 39.593479,11.998466 23.407003,11.998466 
	C21.142313,17.301016 18.851866,22.194740 12.171847,22.221716 
	C12.171847,28.876671 12.171847,35.335609 12.171847,41.774292 
	C17.112186,42.277725 20.657181,44.327694 22.065426,49.236267 
	C22.756580,51.645348 24.450838,52.086174 26.868923,52.065613 
	C42.521084,51.932533 58.174866,51.990360 74.676620,51.800873 
z"/>
<path fill="#000000" opacity="1.000000" stroke="none" 
	d="
M74.252365,51.893242 
	C58.174866,51.990360 42.521084,51.932533 26.868923,52.065613 
	C24.450838,52.086174 22.756580,51.645348 22.065426,49.236267 
	C20.657181,44.327694 17.112186,42.277725 12.171847,41.774292 
	C12.171847,35.335609 12.171847,28.876671 12.171847,22.221716 
	C18.851866,22.194740 21.142313,17.301016 23.407003,11.998466 
	C39.593479,11.998466 55.895493,11.948005 72.195602,12.100380 
	C73.415497,12.111784 75.387169,13.343724 75.704529,14.400231 
	C77.233978,19.491852 80.772087,21.658916 85.841080,22.287754 
	C85.841080,28.570276 85.841080,34.875008 85.841080,41.628956 
	C79.382309,41.783669 76.793610,46.542942 74.252365,51.893242 
M58.990219,19.476166 
	C51.753002,13.329252 39.797325,15.412236 34.652836,23.930599 
	C31.496218,29.157404 31.238836,40.743816 40.157536,45.635559 
	C48.922684,50.443069 56.802067,47.574242 62.016792,41.953075 
	C67.274399,36.285683 65.891975,23.055630 58.990219,19.476166 
z"/>
<path fill="#F2F2F2" opacity="1.000000" stroke="none" 
	d="
M59.293320,19.717422 
	C65.891975,23.055630 67.274399,36.285683 62.016792,41.953075 
	C56.802067,47.574242 48.922684,50.443069 40.157536,45.635559 
	C31.238836,40.743816 31.496218,29.157404 34.652836,23.930599 
	C39.797325,15.412236 51.753002,13.329252 59.293320,19.717422 
z"/>
</svg>