<svg width="124" height="124" viewBox="0 0 124 124" fill="none" xmlns="http://www.w3.org/2000/svg">
<rect width="124" height="124" rx="25" fill="white"/>
<path d="M62 103C56.3283 103 50.9983 101.924 46.01 99.7712C41.0217 97.6188 36.6825 94.6975 32.9925 91.0075C29.3025 87.3175 26.3812 82.9783 24.2287 77.99C22.0762 73.0017 21 67.6717 21 62C21 56.3283 22.0762 50.9983 24.2287 46.01C26.3812 41.0217 29.3025 36.6825 32.9925 32.9925C36.6825 29.3025 41.0217 26.3812 46.01 24.2287C50.9983 22.0762 56.3283 21 62 21C67.6717 21 73.0017 22.0762 77.99 24.2287C82.9783 26.3812 87.3175 29.3025 91.0075 32.9925C94.6975 36.6825 97.6188 41.0217 99.7712 46.01C101.924 50.9983 103 56.3283 103 62C103 67.6717 101.924 73.0017 99.7712 77.99C97.6188 82.9783 94.6975 87.3175 91.0075 91.0075C87.3175 94.6975 82.9783 97.6188 77.99 99.7712C73.0017 101.924 67.6717 103 62 103ZM62 94.8C71.1567 94.8 78.9125 91.6225 85.2675 85.2675C91.6225 78.9125 94.8 71.1567 94.8 62C94.8 52.8433 91.6225 45.0875 85.2675 38.7325C78.9125 32.3775 71.1567 29.2 62 29.2C52.8433 29.2 45.0875 32.3775 38.7325 38.7325C32.3775 45.0875 29.2 52.8433 29.2 62C29.2 71.1567 32.3775 78.9125 38.7325 85.2675C45.0875 91.6225 52.8433 94.8 62 94.8ZM62 86.6C55.1667 86.6 49.3583 84.2083 44.575 79.425C39.7917 74.6417 37.4 68.8333 37.4 62C37.4 55.1667 39.7917 49.3583 44.575 44.575C49.3583 39.7917 55.1667 37.4 62 37.4C68.8333 37.4 74.6417 39.7917 79.425 44.575C84.2083 49.3583 86.6 55.1667 86.6 62C86.6 68.8333 84.2083 74.6417 79.425 79.425C74.6417 84.2083 68.8333 86.6 62 86.6ZM62 78.4C66.51 78.4 70.3708 76.7942 73.5825 73.5825C76.7942 70.3708 78.4 66.51 78.4 62C78.4 57.49 76.7942 53.6292 73.5825 50.4175C70.3708 47.2058 66.51 45.6 62 45.6C57.49 45.6 53.6292 47.2058 50.4175 50.4175C47.2058 53.6292 45.6 57.49 45.6 62C45.6 66.51 47.2058 70.3708 50.4175 73.5825C53.6292 76.7942 57.49 78.4 62 78.4ZM62 70.2C59.745 70.2 57.8146 69.3971 56.2087 67.7912C54.6029 66.1854 53.8 64.255 53.8 62C53.8 59.745 54.6029 57.8146 56.2087 56.2087C57.8146 54.6029 59.745 53.8 62 53.8C64.255 53.8 66.1854 54.6029 67.7912 56.2087C69.3971 57.8146 70.2 59.745 70.2 62C70.2 64.255 69.3971 66.1854 67.7912 67.7912C66.1854 69.3971 64.255 70.2 62 70.2Z" fill="#1A0F91"/>
</svg>
