<svg width="124" height="124" viewBox="0 0 124 124" fill="none" xmlns="http://www.w3.org/2000/svg">
<rect width="124" height="124" rx="25" fill="#175CFF"/>
<path d="M62 78.8C66.6591 78.8 70.6193 77.1667 73.8807 73.9C77.142 70.6333 78.7727 66.6667 78.7727 62C78.7727 57.3333 77.142 53.3667 73.8807 50.1C70.6193 46.8333 66.6591 45.2 62 45.2C57.3409 45.2 53.3807 46.8333 50.1193 50.1C46.858 53.3667 45.2273 57.3333 45.2273 62C45.2273 66.6667 46.858 70.6333 50.1193 73.9C53.3807 77.1667 57.3409 78.8 62 78.8ZM62 72.08C59.2045 72.08 56.8284 71.1 54.8716 69.14C52.9148 67.18 51.9364 64.8 51.9364 62C51.9364 59.2 52.9148 56.82 54.8716 54.86C56.8284 52.9 59.2045 51.92 62 51.92C64.7955 51.92 67.1716 52.9 69.1284 54.86C71.0852 56.82 72.0636 59.2 72.0636 62C72.0636 64.8 71.0852 67.18 69.1284 69.14C67.1716 71.1 64.7955 72.08 62 72.08ZM62 90C52.9303 90 44.6682 87.4644 37.2136 82.3933C29.7591 77.3222 24.3545 70.5244 21 62C24.3545 53.4756 29.7591 46.6778 37.2136 41.6067C44.6682 36.5356 52.9303 34 62 34C71.0697 34 79.3318 36.5356 86.7864 41.6067C94.2409 46.6778 99.6455 53.4756 103 62C99.6455 70.5244 94.2409 77.3222 86.7864 82.3933C79.3318 87.4644 71.0697 90 62 90ZM62 82.5333C69.0197 82.5333 75.4648 80.6822 81.3352 76.98C87.2057 73.2778 91.6939 68.2844 94.8 62C91.6939 55.7156 87.2057 50.7222 81.3352 47.02C75.4648 43.3178 69.0197 41.4667 62 41.4667C54.9803 41.4667 48.5352 43.3178 42.6648 47.02C36.7943 50.7222 32.3061 55.7156 29.2 62C32.3061 68.2844 36.7943 73.2778 42.6648 76.98C48.5352 80.6822 54.9803 82.5333 62 82.5333Z" fill="white"/>
</svg>
