<svg width="68" height="68" viewBox="0 0 68 68" fill="none" xmlns="http://www.w3.org/2000/svg">
<rect width="68" height="68" rx="10" fill="white"/>
<path d="M34.5 31.65L36.35 33.5L47.2 22.65L45.35 20.8L34.5 31.65ZM20 48H21.85L33.5 36.35L31.65 34.5L20 46.15V48ZM37.75 37.75L30.25 30.25L38.6 21.9L37.15 20.45L26.2 31.4L23.4 28.6L34.3 17.65C35.1 16.85 36.0417 16.45 37.125 16.45C38.2083 16.45 39.15 16.85 39.95 17.65L41.4 19.1L43.9 16.6C44.3 16.2 44.775 16 45.325 16C45.875 16 46.35 16.2 46.75 16.6L51.4 21.25C51.8 21.65 52 22.125 52 22.675C52 23.225 51.8 23.7 51.4 24.1L37.75 37.75ZM23.5 52H16V44.5L30.25 30.25L37.75 37.75L23.5 52Z" fill="#1A0F91"/>
</svg>
