<svg width="199" height="48" viewBox="0 0 199 48" fill="none" xmlns="http://www.w3.org/2000/svg">
<path d="M30.3877 16.0487C33.617 18.3551 37.5715 19.7123 41.8427 19.7123V13.2455C39.4585 12.7379 37.3479 11.4926 35.761 9.76048C33.0446 8.06631 31.0875 5.27133 30.5137 2H24.5256V34.8138C24.5121 38.6393 21.406 41.7368 17.5756 41.7368C15.3184 41.7368 13.3131 40.6614 12.0431 38.9955C9.77532 37.8515 8.22013 35.5028 8.22013 32.7905C8.22013 28.9545 11.3314 25.8443 15.17 25.8443C15.9055 25.8443 16.6143 25.9587 17.2793 26.1696V19.6321C9.03591 19.8024 2.40625 26.5345 2.40625 34.814C2.40625 38.9471 4.05719 42.6939 6.73668 45.4316C9.15397 47.0539 12.0639 48.0001 15.1947 48.0001C23.5856 48.0001 30.3879 41.2012 30.3879 32.8144V16.0487H30.3877Z" fill="#175CFF"/>
<path d="M41.8419 13.2454V11.4968C39.692 11.5001 37.5843 10.8983 35.7602 9.76028C37.3749 11.5272 39.5012 12.7456 41.8419 13.2454ZM30.5129 1.99997C30.4582 1.68732 30.4161 1.37261 30.3869 1.0567V0H22.1191V32.8142C22.1058 36.6391 18.9999 39.7366 15.1692 39.7366C14.0445 39.7366 12.9827 39.4698 12.0423 38.9956C13.3123 40.6613 15.3176 41.7366 17.5748 41.7366C21.4049 41.7366 24.5115 38.6394 24.5248 34.814V1.99997H30.5129ZM17.2788 19.6321V17.7706C16.588 17.6762 15.8914 17.6289 15.1941 17.6292C6.80246 17.629 0 24.4279 0 32.8142C0 38.0719 2.67348 42.7056 6.73605 45.4312C4.05656 42.6937 2.40562 38.9467 2.40562 34.8138C2.40562 26.5344 9.03511 19.8023 17.2788 19.6321Z" fill="#175CFF"/>
<path d="M156.248 45.4137C163.652 45.4137 169.655 39.4598 169.655 32.116C169.655 24.7724 163.652 18.8174 156.248 18.8174H154.229C161.633 18.8174 167.635 24.7722 167.635 32.116C167.635 39.4598 161.633 45.4137 154.229 45.4137H156.248Z" fill="#175CFF"/>
<path d="M154.046 18.8174H152.026C144.623 18.8174 138.619 24.7722 138.619 32.116C138.619 39.4598 144.623 45.4137 152.026 45.4137H154.046C146.641 45.4137 140.639 39.4598 140.639 32.116C140.639 24.7724 146.641 18.8174 154.046 18.8174Z" fill="#175CFF"/>
<path d="M172.225 12.8071V45.2317H179.939V36.8531L182.326 34.6652L189.857 45.4137H198.121L187.285 29.748L197.018 20.2745H187.653L179.939 27.9249V12.8071H172.225Z" fill="#175CFF"/>
<path d="M89.0352 12.8071V45.2317H96.7489V36.8531L99.1365 34.6652L106.665 45.4137H114.928L104.092 29.748L113.826 20.2745H104.46L96.7489 27.9249V12.8071H89.0352Z" fill="#175CFF"/>
<path d="M81.8708 12.8071C79.7411 12.8071 78.0176 14.5201 78.0176 16.6322C78.0176 18.7445 79.7411 20.4566 81.8708 20.4576C84.0034 20.4576 85.7281 18.7445 85.7281 16.6322C85.7281 14.5201 84.0024 12.8071 81.8708 12.8071ZM78.0176 23.1908V45.232H85.7281V23.1908H78.0176Z" fill="#175CFF"/>
<path d="M116.766 12.8071V19.5476H124.661V45.2319H132.56V19.7296H138.987L141.19 12.8073H116.766V12.8071Z" fill="#175CFF"/>
<path d="M52.1211 12.8071V19.5476H60.0166V45.2319H67.9152V19.7296H74.3423L76.546 12.8073H52.1211V12.8071Z" fill="#175CFF"/>
<path d="M154.228 45.4137C161.632 45.4137 167.636 39.4598 167.636 32.116C167.636 24.7724 161.632 18.8174 154.228 18.8174H154.045C146.641 18.8174 140.639 24.7722 140.639 32.116C140.639 39.4598 146.641 45.4137 154.045 45.4137H154.228ZM147.617 32.116C147.617 28.5437 150.537 25.6501 154.138 25.6501C157.737 25.6501 160.657 28.5437 160.657 32.116C160.657 35.6882 157.737 38.5835 154.138 38.5835C150.537 38.5828 147.617 35.6882 147.617 32.116Z" fill="#175CFF"/>
</svg>
