<svg width="244" height="54" viewBox="0 0 244 54" fill="none" xmlns="http://www.w3.org/2000/svg">
<path d="M42.0331 2C46.4323 2 50 5.56692 50 9.96764V44.0331C50 48.4323 46.4323 52 42.0331 52H7.96765C3.56766 52 0 48.4323 0 44.0331V9.96764C0 5.56692 3.56766 2 7.96765 2H42.0331Z" fill="#175CFF"/>
<path d="M41.8577 35.5707C41.7103 35.083 41.0051 34.7391 41.0051 34.7391C40.9385 34.7041 40.8788 34.6725 40.8297 34.6479C39.6544 34.0796 38.6124 33.3954 37.7352 32.62C37.03 31.9955 36.4266 31.3079 35.9424 30.5781C35.3495 29.687 35.0723 28.9432 34.953 28.5397C34.8864 28.2766 34.8969 28.1713 34.953 28.0345C34.9987 27.9187 35.1355 27.81 35.1986 27.7573C35.5951 27.4767 36.2336 27.0627 36.6266 26.8101C36.9669 26.589 37.2581 26.3996 37.43 26.2803C37.9808 25.8944 38.3597 25.5014 38.5808 25.0769C38.8685 24.5296 38.9036 23.9261 38.679 23.3332C38.3773 22.5333 37.63 22.0561 36.6792 22.0561C36.4687 22.0561 36.2512 22.0807 36.0336 22.1263C35.4898 22.2456 34.9741 22.4385 34.5426 22.6069C34.511 22.621 34.4759 22.5964 34.4794 22.5613C34.525 21.4913 34.5776 20.0528 34.4584 18.688C34.3531 17.453 34.097 16.411 33.683 15.5023C33.2655 14.5901 32.7217 13.9165 32.2972 13.4288C31.8937 12.9657 31.1815 12.2816 30.1079 11.6676C28.5992 10.8045 26.8801 10.366 24.9996 10.366C23.1226 10.366 21.4069 10.8045 19.8948 11.6676C18.7581 12.3167 18.0318 13.0499 17.702 13.4288C17.2775 13.9165 16.7337 14.5901 16.3162 15.5023C15.8987 16.411 15.6461 17.4495 15.5408 18.688C15.4215 20.0598 15.4706 21.3825 15.5198 22.5613C15.5198 22.5964 15.4882 22.621 15.4531 22.6069C15.0216 22.4385 14.5058 22.2456 13.962 22.1263C13.748 22.0807 13.5305 22.0561 13.3165 22.0561C12.3692 22.0561 11.6219 22.5333 11.3166 23.3332C11.0921 23.9261 11.1272 24.5296 11.4149 25.0769C11.6394 25.5014 12.0148 25.8944 12.5656 26.2803C12.7341 26.3996 13.0288 26.589 13.3691 26.8101C13.7515 27.0592 14.3725 27.4626 14.7725 27.7398C14.8216 27.7749 14.99 27.9012 15.0426 28.0345C15.0987 28.1748 15.1093 28.2801 15.0356 28.5608C14.9128 28.9678 14.6356 29.7045 14.0532 30.5781C13.5691 31.3114 12.9656 31.9955 12.2604 32.62C11.3833 33.3954 10.3413 34.0796 9.16596 34.6479C9.10982 34.676 9.04316 34.7076 8.973 34.7497C8.973 34.7497 8.27131 35.1075 8.13798 35.5707C7.94151 36.2548 8.46427 36.8968 8.99405 37.2407C9.86414 37.802 10.9237 38.1037 11.5377 38.2686C11.7096 38.3143 11.864 38.3564 12.0043 38.3985C12.092 38.4265 12.313 38.5107 12.4078 38.6335C12.5271 38.7879 12.5411 38.9774 12.5832 39.1914C12.6498 39.5527 12.8007 39.9983 13.2463 40.3071C13.7375 40.6439 14.3585 40.6684 15.1479 40.7C15.9723 40.7316 16.9968 40.7702 18.1721 41.1596C18.716 41.3385 19.2106 41.6438 19.779 41.9946C20.9719 42.7279 22.456 43.6401 24.9891 43.6401C27.5257 43.6401 29.0203 42.7244 30.2201 41.9876C30.7885 41.6403 31.2762 41.3385 31.8095 41.1631C32.9848 40.7737 34.0093 40.7351 34.8338 40.7035C35.6232 40.6719 36.2442 40.6509 36.7353 40.3106C37.2125 39.9808 37.3493 39.4896 37.4125 39.1212C37.4475 38.9388 37.4686 38.7739 37.5739 38.6405C37.6651 38.5248 37.8686 38.4441 37.9633 38.4125C38.1071 38.3669 38.2685 38.3248 38.4475 38.2757C39.0614 38.1108 39.8333 37.9178 40.7701 37.388C41.8998 36.746 41.977 35.9601 41.8577 35.5707Z" fill="#0F255A"/>
<path d="M42.8325 35.1918C42.5834 34.5111 42.1062 34.1498 41.5659 33.848C41.4642 33.7884 41.3695 33.7393 41.2923 33.7042C41.1309 33.62 40.966 33.5393 40.8011 33.4551C39.1135 32.5604 37.7944 31.4307 36.8822 30.094C36.5734 29.6414 36.3594 29.2344 36.2085 28.9011C36.1314 28.6766 36.1349 28.5503 36.191 28.4345C36.2331 28.3468 36.3454 28.2556 36.4085 28.21C36.6997 28.017 36.9979 27.824 37.2014 27.6942C37.5628 27.4592 37.8505 27.2732 38.0329 27.1469C38.7276 26.6627 39.2118 26.147 39.5135 25.5716C39.9415 24.7612 39.9942 23.8349 39.6644 22.9648C39.2083 21.7579 38.0645 21.0071 36.6822 21.0071C36.3945 21.0071 36.1033 21.0387 35.8156 21.1019C35.7384 21.1194 35.6647 21.1369 35.5911 21.1545C35.6051 20.3335 35.584 19.4564 35.5104 18.6003C35.2507 15.5831 34.1947 14.0008 33.093 12.7412C32.6334 12.215 31.8335 11.4466 30.6336 10.759C28.9601 9.79764 27.0655 9.31348 24.9991 9.31348C22.9396 9.31348 21.045 9.79764 19.3715 10.7554C18.1646 11.4431 17.3647 12.215 16.9086 12.7377C15.8069 13.9973 14.7509 15.5796 14.4913 18.5968C14.4176 19.4529 14.4 20.33 14.4106 21.151C14.3369 21.1334 14.2597 21.1159 14.186 21.0984C13.8983 21.0352 13.6036 21.0036 13.3194 21.0036C11.9371 21.0036 10.7934 21.7544 10.3373 22.9613C10.0075 23.8314 10.0601 24.7577 10.4881 25.5681C10.7898 26.1435 11.2775 26.6592 11.9687 27.1434C12.1546 27.2732 12.4388 27.4592 12.8002 27.6907C12.9967 27.817 13.2808 28.003 13.5615 28.1889C13.6036 28.217 13.7545 28.3293 13.8071 28.4345C13.8668 28.5538 13.8668 28.6836 13.779 28.9222C13.6317 29.2485 13.4177 29.6484 13.1159 30.0905C12.2213 31.3991 10.9407 32.5078 9.30928 33.3919C8.44269 33.8516 7.54453 34.1568 7.16562 35.1883C6.87792 35.9671 7.06738 36.8548 7.79363 37.6021C8.0322 37.8582 8.33393 38.0863 8.71284 38.2968C9.60399 38.7879 10.3618 39.03 10.9582 39.1949C11.0635 39.2265 11.3056 39.3037 11.4108 39.3984C11.6775 39.63 11.6389 39.9808 11.9932 40.493C12.2073 40.8123 12.4528 41.0298 12.6563 41.1702C13.3966 41.6824 14.2316 41.714 15.1158 41.7491C15.9122 41.7806 16.8174 41.8157 17.8488 42.156C18.2769 42.2964 18.7224 42.57 19.2347 42.8858C20.4696 43.6471 22.1642 44.6856 24.9955 44.6856C27.8304 44.6856 29.532 43.6401 30.7775 42.8788C31.2897 42.5665 31.7318 42.2929 32.1458 42.156C33.1772 41.8157 34.0824 41.7806 34.8788 41.7491C35.763 41.714 36.5945 41.6824 37.3383 41.1702C37.5698 41.0088 37.8645 40.7457 38.0961 40.3457C38.3487 39.9142 38.3452 39.6089 38.5838 39.4019C38.682 39.3177 38.896 39.244 39.0118 39.209C39.6117 39.0441 40.3801 38.802 41.2888 38.3003C41.6922 38.0792 42.0045 37.8372 42.2536 37.56C42.2571 37.5565 42.2606 37.553 42.2641 37.5495C42.9412 36.8127 43.1132 35.9531 42.8325 35.1918ZM40.3169 36.5425C38.7802 37.3916 37.7593 37.3004 36.9664 37.8091C36.2927 38.2441 36.6892 39.1809 36.2015 39.5177C35.5981 39.9352 33.8193 39.4896 31.5213 40.2475C29.6267 40.8755 28.4163 42.6753 25.0026 42.6753C21.5818 42.6753 20.4065 40.8825 18.4839 40.2475C16.1858 39.4896 14.4035 39.9352 13.8036 39.5177C13.3159 39.1809 13.7124 38.2441 13.0388 37.8091C12.2458 37.2968 11.2249 37.3881 9.68819 36.5425C8.70933 36.0022 9.26367 35.6689 9.58995 35.511C15.1544 32.8201 16.0385 28.6591 16.0806 28.3468C16.1297 27.9749 16.1823 27.6802 15.7718 27.2978C15.3754 26.9294 13.6106 25.8383 13.123 25.4979C12.3125 24.9331 11.9582 24.3682 12.2213 23.6736C12.4037 23.1929 12.8528 23.014 13.3264 23.014C13.4738 23.014 13.6247 23.0315 13.7685 23.0631C14.6562 23.256 15.5192 23.7016 16.0174 23.8209C16.0876 23.8384 16.1472 23.8455 16.1999 23.8455C16.4665 23.8455 16.5577 23.7121 16.5402 23.4069C16.4841 22.4351 16.3437 20.5405 16.4981 18.7687C16.7086 16.3339 17.4945 15.127 18.4277 14.0569C18.8768 13.5447 20.9819 11.3203 25.0061 11.3203C29.0408 11.3203 31.1353 13.5447 31.5844 14.0569C32.5177 15.1235 33.3035 16.3304 33.5141 18.7687C33.6684 20.5405 33.5351 22.4351 33.472 23.4069C33.4509 23.7262 33.5491 23.8455 33.8123 23.8455C33.8649 23.8455 33.9281 23.8384 33.9947 23.8209C34.4929 23.7016 35.356 23.256 36.2436 23.0631C36.3875 23.0315 36.5383 23.014 36.6857 23.014C37.1593 23.014 37.6084 23.1964 37.7908 23.6736C38.054 24.3682 37.6961 24.9331 36.8892 25.4979C36.4015 25.8383 34.6368 26.9294 34.2403 27.2978C33.8298 27.6767 33.8824 27.9714 33.9316 28.3468C33.9701 28.6591 34.8578 32.8201 40.4222 35.511C40.7379 35.6689 41.2958 36.0022 40.3169 36.5425Z" fill="#0F255A"/>
<path d="M74.6826 40.252C72.8346 40.252 71.1786 39.952 69.7146 39.352C68.2506 38.752 67.0746 37.864 66.1866 36.688C65.3226 35.512 64.8666 34.096 64.8186 32.44H71.3706C71.4666 33.376 71.7906 34.096 72.3426 34.6C72.8946 35.08 73.6146 35.32 74.5026 35.32C75.4146 35.32 76.1346 35.116 76.6626 34.708C77.1906 34.276 77.4546 33.688 77.4546 32.944C77.4546 32.32 77.2386 31.804 76.8066 31.396C76.3986 30.988 75.8826 30.652 75.2586 30.388C74.6586 30.124 73.7946 29.824 72.6666 29.488C71.0346 28.984 69.7026 28.48 68.6706 27.976C67.6386 27.472 66.7506 26.728 66.0066 25.744C65.2626 24.76 64.8906 23.476 64.8906 21.892C64.8906 19.54 65.7426 17.704 67.4466 16.384C69.1506 15.04 71.3706 14.368 74.1066 14.368C76.8906 14.368 79.1346 15.04 80.8386 16.384C82.5426 17.704 83.4546 19.552 83.5746 21.928H76.9146C76.8666 21.112 76.5666 20.476 76.0146 20.02C75.4626 19.54 74.7546 19.3 73.8906 19.3C73.1466 19.3 72.5466 19.504 72.0906 19.912C71.6346 20.296 71.4066 20.86 71.4066 21.604C71.4066 22.42 71.7906 23.056 72.5586 23.512C73.3266 23.968 74.5266 24.46 76.1586 24.988C77.7906 25.54 79.1106 26.068 80.1186 26.572C81.1506 27.076 82.0386 27.808 82.7826 28.768C83.5266 29.728 83.8986 30.964 83.8986 32.476C83.8986 33.916 83.5266 35.224 82.7826 36.4C82.0626 37.576 81.0066 38.512 79.6146 39.208C78.2226 39.904 76.5786 40.252 74.6826 40.252ZM99.9271 19.696C102.279 19.696 104.151 20.464 105.543 22C106.959 23.512 107.667 25.6 107.667 28.264V40H101.547V29.092C101.547 27.748 101.199 26.704 100.503 25.96C99.8071 25.216 98.8711 24.844 97.6951 24.844C96.5191 24.844 95.5831 25.216 94.8871 25.96C94.1911 26.704 93.8431 27.748 93.8431 29.092V40H87.6871V19.912H93.8431V22.576C94.4671 21.688 95.3071 20.992 96.3631 20.488C97.4191 19.96 98.6071 19.696 99.9271 19.696ZM110.721 29.92C110.721 27.856 111.105 26.044 111.873 24.484C112.665 22.924 113.733 21.724 115.077 20.884C116.421 20.044 117.921 19.624 119.577 19.624C120.993 19.624 122.229 19.912 123.285 20.488C124.365 21.064 125.193 21.82 125.769 22.756V19.912H131.925V40H125.769V37.156C125.169 38.092 124.329 38.848 123.249 39.424C122.193 40 120.957 40.288 119.541 40.288C117.909 40.288 116.421 39.868 115.077 39.028C113.733 38.164 112.665 36.952 111.873 35.392C111.105 33.808 110.721 31.984 110.721 29.92ZM125.769 29.956C125.769 28.42 125.337 27.208 124.473 26.32C123.633 25.432 122.601 24.988 121.377 24.988C120.153 24.988 119.109 25.432 118.245 26.32C117.405 27.184 116.985 28.384 116.985 29.92C116.985 31.456 117.405 32.68 118.245 33.592C119.109 34.48 120.153 34.924 121.377 34.924C122.601 34.924 123.633 34.48 124.473 33.592C125.337 32.704 125.769 31.492 125.769 29.956ZM142.534 22.756C143.134 21.82 143.962 21.064 145.018 20.488C146.074 19.912 147.31 19.624 148.726 19.624C150.382 19.624 151.882 20.044 153.226 20.884C154.57 21.724 155.626 22.924 156.394 24.484C157.186 26.044 157.582 27.856 157.582 29.92C157.582 31.984 157.186 33.808 156.394 35.392C155.626 36.952 154.57 38.164 153.226 39.028C151.882 39.868 150.382 40.288 148.726 40.288C147.334 40.288 146.098 40 145.018 39.424C143.962 38.848 143.134 38.104 142.534 37.192V49.576H136.378V19.912H142.534V22.756ZM151.318 29.92C151.318 28.384 150.886 27.184 150.022 26.32C149.182 25.432 148.138 24.988 146.89 24.988C145.666 24.988 144.622 25.432 143.758 26.32C142.918 27.208 142.498 28.42 142.498 29.956C142.498 31.492 142.918 32.704 143.758 33.592C144.622 34.48 145.666 34.924 146.89 34.924C148.114 34.924 149.158 34.48 150.022 33.592C150.886 32.68 151.318 31.456 151.318 29.92ZM159.588 29.956C159.588 27.868 160.008 26.044 160.848 24.484C161.712 22.924 162.9 21.724 164.412 20.884C165.948 20.044 167.7 19.624 169.668 19.624C172.188 19.624 174.288 20.284 175.968 21.604C177.672 22.924 178.788 24.784 179.316 27.184H172.764C172.212 25.648 171.144 24.88 169.56 24.88C168.432 24.88 167.532 25.324 166.86 26.212C166.188 27.076 165.852 28.324 165.852 29.956C165.852 31.588 166.188 32.848 166.86 33.736C167.532 34.6 168.432 35.032 169.56 35.032C171.144 35.032 172.212 34.264 172.764 32.728H179.316C178.788 35.08 177.672 36.928 175.968 38.272C174.264 39.616 172.164 40.288 169.668 40.288C167.7 40.288 165.948 39.868 164.412 39.028C162.9 38.188 161.712 36.988 160.848 35.428C160.008 33.868 159.588 32.044 159.588 29.956ZM194.957 19.696C197.261 19.696 199.109 20.464 200.501 22C201.893 23.512 202.589 25.6 202.589 28.264V40H196.469V29.092C196.469 27.748 196.121 26.704 195.425 25.96C194.729 25.216 193.793 24.844 192.617 24.844C191.441 24.844 190.505 25.216 189.809 25.96C189.113 26.704 188.765 27.748 188.765 29.092V40H182.609V13.36H188.765V22.612C189.389 21.724 190.241 21.016 191.321 20.488C192.401 19.96 193.613 19.696 194.957 19.696ZM205.643 29.92C205.643 27.856 206.027 26.044 206.795 24.484C207.587 22.924 208.655 21.724 209.999 20.884C211.343 20.044 212.843 19.624 214.499 19.624C215.915 19.624 217.151 19.912 218.207 20.488C219.287 21.064 220.115 21.82 220.691 22.756V19.912H226.847V40H220.691V37.156C220.091 38.092 219.251 38.848 218.171 39.424C217.115 40 215.879 40.288 214.463 40.288C212.831 40.288 211.343 39.868 209.999 39.028C208.655 38.164 207.587 36.952 206.795 35.392C206.027 33.808 205.643 31.984 205.643 29.92ZM220.691 29.956C220.691 28.42 220.259 27.208 219.395 26.32C218.555 25.432 217.523 24.988 216.299 24.988C215.075 24.988 214.031 25.432 213.167 26.32C212.327 27.184 211.907 28.384 211.907 29.92C211.907 31.456 212.327 32.68 213.167 33.592C214.031 34.48 215.075 34.924 216.299 34.924C217.523 34.924 218.555 34.48 219.395 33.592C220.259 32.704 220.691 31.492 220.691 29.956ZM242.496 34.78V40H239.364C237.132 40 235.392 39.46 234.144 38.38C232.896 37.276 232.272 35.488 232.272 33.016V25.024H229.824V19.912H232.272V15.016H238.428V19.912H242.46V25.024H238.428V33.088C238.428 33.688 238.572 34.12 238.86 34.384C239.148 34.648 239.628 34.78 240.3 34.78H242.496Z" fill="#175CFF"/>
</svg>
