<svg width="231" height="66" viewBox="0 0 231 66" fill="none" xmlns="http://www.w3.org/2000/svg">
<path d="M49.9276 12.6783C49.8893 12.3335 49.5835 12.1803 49.3541 12.142C49.1248 12.1037 44.1167 11.759 44.1167 11.759C44.1167 11.759 40.6378 8.31173 40.2938 7.9287C39.9115 7.54567 39.1851 7.66058 38.8793 7.73718C38.841 7.73718 38.1147 7.967 36.9296 8.35003C35.8209 5.01768 33.7565 1.95345 30.163 1.95345H29.8571C28.8249 0.612846 27.5634 0 26.493 0C18.1207 0.0383029 14.1449 10.495 12.8833 15.8191C9.6338 16.815 7.34004 17.5427 7.0342 17.6193C5.23742 18.1939 5.16097 18.2322 4.93159 19.9558C4.74044 21.2964 0 58.0672 0 58.0672L36.9678 65L57 60.6718C57 60.6335 49.9658 13.023 49.9276 12.6783ZM34.9034 9.00118C33.9859 9.3076 32.9155 9.61402 31.7686 9.95875V9.2693C31.7686 7.20094 31.4628 5.51562 31.004 4.21332C32.8773 4.48144 34.1388 6.5881 34.9034 9.00118ZM28.7485 4.63465C29.2455 5.93695 29.5895 7.77549 29.5895 10.2652V10.6099C27.5634 11.2227 25.3461 11.9122 23.1288 12.6016C24.3903 7.85209 26.7223 5.51562 28.7485 4.63465ZM26.2636 2.29817C26.6076 2.29817 26.9899 2.41308 27.334 2.6429C24.6579 3.90689 21.7907 7.08603 20.5674 13.4443C18.8089 13.9806 17.0503 14.5168 15.4447 15.0147C16.8974 10.1886 20.2616 2.29817 26.2636 2.29817Z" fill="#175CFF"/>
<path d="M49.3664 12.4198C49.1374 12.3817 44.1374 12.0388 44.1374 12.0388C44.1374 12.0388 40.6641 8.60963 40.3206 8.22861C40.1679 8.0762 39.9771 8 39.7863 8L37 65L57 60.6945C57 60.6945 49.9771 13.2961 49.9389 12.9913C49.9008 12.6484 49.5954 12.4579 49.3664 12.4198Z" fill="#175CFF"/>
<path d="M29 24.9965L26.5668 32.3554C26.5668 32.3554 24.4332 31.2056 21.8503 31.2056C18.0321 31.2056 17.8449 33.6585 17.8449 34.2718C17.8449 37.6446 26.4171 38.9094 26.4171 46.8049C26.4171 53.0139 22.5615 57 17.3957 57C11.1818 57 8 53.0523 8 53.0523L9.64706 47.4181C9.64706 47.4181 12.9037 50.2927 15.6738 50.2927C17.4706 50.2927 18.2193 48.8362 18.2193 47.7631C18.2193 43.3554 11.1818 43.1638 11.1818 35.9582C11.1818 29.9024 15.4492 24 24.0214 24C27.3904 24.0383 29 24.9965 29 24.9965Z" fill="#0F255A"/>
<path d="M80.1797 36.8083C78.2082 35.7468 77.1845 34.8369 77.1845 33.5858C77.1845 31.9936 78.5873 30.97 80.8242 30.97C83.4023 30.97 85.6772 32.0315 85.6772 32.0315L87.497 26.4964C87.497 26.4964 85.8288 25.2074 80.938 25.2074C74.1135 25.2074 69.3743 29.1123 69.3743 34.6094C69.3743 37.7182 71.5733 40.1066 74.5306 41.8126C76.9191 43.1774 77.7532 44.1252 77.7532 45.5658C77.7532 47.0443 76.5779 48.2196 74.341 48.2196C71.0425 48.2196 67.9336 46.5136 67.9336 46.5136L66 52.0486C66 52.0486 68.8814 53.9821 73.6965 53.9821C80.7105 53.9821 85.753 50.5322 85.753 44.3147C85.7909 40.9406 83.2507 38.5901 80.1797 36.8083ZM108.16 25.1695C104.71 25.1695 101.98 26.7997 99.8948 29.3019L99.781 29.2639L102.776 13.5687H94.966L87.3833 53.4893H95.1935L97.8095 39.8412C98.8332 34.6853 101.487 31.5007 103.989 31.5007C105.733 31.5007 106.416 32.676 106.416 34.382C106.416 35.4435 106.302 36.7704 106.075 37.8319L103.117 53.4514H110.928L113.999 37.3011C114.34 35.5951 114.567 33.5479 114.567 32.221C114.529 27.8233 112.217 25.1695 108.16 25.1695ZM132.197 25.1695C122.795 25.1695 116.577 33.6617 116.577 43.1016C116.577 49.1674 120.33 54.02 127.344 54.02C136.557 54.02 142.813 45.7554 142.813 36.088C142.813 30.4771 139.514 25.1695 132.197 25.1695ZM128.368 48.03C125.714 48.03 124.577 45.7554 124.577 42.9499C124.577 38.4764 126.889 31.1595 131.136 31.1595C133.903 31.1595 134.813 33.5479 134.813 35.8605C134.813 40.6752 132.5 48.03 128.368 48.03ZM162.793 25.1695C157.523 25.1695 154.528 29.7947 154.528 29.7947H154.415L154.869 25.6245H147.969C147.628 28.4678 147.021 32.7518 146.377 35.9742L140.955 64.5594H148.727L150.889 52.9964H151.04C151.04 52.9964 152.633 54.02 155.628 54.02C164.803 54.02 170.793 44.618 170.793 35.1023C170.831 29.8705 168.48 25.1695 162.793 25.1695ZM155.324 48.1438C153.277 48.1438 152.102 47.0064 152.102 47.0064L153.391 39.6896C154.301 34.8369 156.841 31.5765 159.571 31.5765C161.959 31.5765 162.68 33.7754 162.68 35.8605C162.68 40.9406 159.685 48.1438 155.324 48.1438ZM181.978 13.9478C179.475 13.9478 177.504 15.9192 177.504 18.4592C177.504 20.7718 178.983 22.3641 181.182 22.3641H181.295C183.722 22.3641 185.807 20.7339 185.883 17.8526C185.883 15.578 184.366 13.9478 181.978 13.9478ZM171.059 53.4514H178.869L184.177 25.7761H176.329M204.043 25.7382H198.622L198.887 24.4492C199.342 21.7954 200.935 19.407 203.513 19.407C204.915 19.407 206.015 19.7861 206.015 19.7861L207.531 13.6824C207.531 13.6824 206.167 13 203.285 13C200.517 13 197.75 13.7961 195.627 15.6159C192.973 17.8906 191.722 21.1509 191.115 24.4492L190.887 25.7382H187.248L186.11 31.6145H189.75L185.617 53.4514H193.466L197.598 31.6145H202.982L204.043 25.7382ZM222.849 25.7761C222.849 25.7761 217.958 38.0973 215.759 44.8076H215.645C215.493 42.6466 213.711 25.7761 213.711 25.7761H205.484L210.185 51.1767C210.299 51.7453 210.223 52.0865 210.034 52.4657C209.124 54.2096 207.607 55.9156 205.787 57.1667C204.309 58.2282 202.679 58.9106 201.389 59.3655L203.551 66C205.143 65.6588 208.403 64.3698 211.209 61.7539C214.773 58.4177 218.071 53.2618 221.446 46.2482L231 25.7761H222.849Z" fill="#175CFF"/>
</svg>
