<svg width="176" height="70" viewBox="0 0 176 70" fill="none" xmlns="http://www.w3.org/2000/svg">
<path d="M111.259 15.2722C92.6837 15.2722 91.4924 25.4227 91.4924 27.0447H100.738C100.738 27.0447 101.223 21.1187 110.621 21.1187C116.728 21.1187 121.461 23.9085 121.461 29.2719V31.181H110.621C96.2307 31.181 88.623 35.3823 88.623 43.908C88.623 52.2984 95.6523 56.8636 105.151 56.8636C118.097 56.8636 122.268 49.7246 122.268 49.7246C122.268 52.5641 122.487 55.3623 122.487 55.3623H130.706C130.706 55.3623 130.387 51.8939 130.387 49.6749V30.4949C130.387 17.9189 120.223 15.2722 111.259 15.2722ZM121.461 36.9081V39.4535C121.461 42.7734 119.408 51.0271 107.323 51.0271C100.706 51.0271 97.8686 47.7311 97.8686 43.908C97.8686 36.9529 107.423 36.9081 121.461 36.9081Z" fill="#175CFF"/>
<path d="M125.41 16.8647H135.811L150.739 46.7107L165.632 16.8647H175.054L147.926 69.9999H138.043L145.871 55.1878L125.41 16.8647Z" fill="#175CFF"/>
<path d="M22.6356 15.2722C10.2887 15.2722 0 20.4999 0 36.2718C0 48.7665 6.91841 56.635 22.9544 56.635C41.8296 56.635 43.0396 44.2262 43.0396 44.2262H33.8937C33.8937 44.2262 31.9327 50.9078 22.3965 50.9078C14.6296 50.9078 9.04325 45.6715 9.04325 38.332H43.996V33.7263C43.996 26.4653 39.3773 15.2722 22.6356 15.2722ZM22.3168 21.1585C29.7102 21.1585 34.7505 25.6787 34.7505 32.4537H9.24554C9.24554 25.2612 15.8244 21.1585 22.3168 21.1585Z" fill="#175CFF"/>
<path d="M43.9907 0V48.7146C43.9907 51.4797 43.793 55.3625 43.793 55.3625H52.5162C52.5162 55.3625 52.8293 52.5739 52.8293 50.0254C52.8293 50.0254 57.1392 56.7545 68.858 56.7545C81.1984 56.7545 89.5808 48.204 89.5808 35.9538C89.5808 24.5575 81.8813 15.3917 68.878 15.3917C56.7012 15.3917 52.9174 21.9541 52.9174 21.9541V0H43.9907ZM66.6264 21.4172C75.0064 21.4172 80.3353 27.6242 80.3353 35.9538C80.3353 44.8857 74.1806 50.7291 66.6861 50.7291C57.7421 50.7291 52.9174 43.7595 52.9174 36.0333C52.9174 28.834 57.2467 21.4172 66.6264 21.4172Z" fill="#175CFF"/>
</svg>
