<svg width="209" height="70" viewBox="0 0 209 70" fill="none" xmlns="http://www.w3.org/2000/svg">
<path d="M10.182 37.0535C8.16547 37.0535 6.39038 36.6124 4.85668 35.7301C3.32299 34.8195 2.13011 33.5673 1.27807 31.9734C0.426018 30.3515 0 28.4874 0 26.3813C0 23.8485 0.624836 21.6287 1.87452 19.7221C3.15258 17.8153 4.95608 16.3496 7.28501 15.325C9.64235 14.3007 12.3973 13.7884 15.5499 13.7884C16.9984 13.7884 18.1771 13.8879 19.0859 14.0872V13.1908C19.0859 11.0278 18.6883 9.41987 17.893 8.36691C17.0978 7.28546 15.8907 6.74474 14.2718 6.74474C11.6589 6.74474 9.98317 8.125 9.24475 10.8855C9.01752 11.6824 8.54891 12.0239 7.83886 11.91L2.04492 10.8855C1.61888 10.8001 1.32067 10.6151 1.15026 10.3306C1.00826 10.046 0.994054 9.66178 1.10768 9.17798C1.84613 6.27517 3.40823 4.02691 5.79395 2.43322C8.2081 0.811076 11.2329 0 14.8683 0C19.1853 0 22.4657 1.16681 24.7095 3.50044C26.9816 5.83406 28.1176 9.23488 28.1176 13.7031V35.1753C28.1176 35.4883 28.0042 35.7585 27.777 35.9861C27.5781 36.1854 27.3223 36.2849 27.0099 36.2849H21.4717C20.79 36.2849 20.364 35.915 20.1936 35.1753L19.3415 31.1626H19.0007C18.2339 33.0408 17.0836 34.4921 15.5499 35.5166C14.0446 36.5412 12.2553 37.0535 10.182 37.0535ZM9.28733 25.3567C9.28733 26.8652 9.67076 28.0747 10.4376 28.9853C11.2329 29.8676 12.2979 30.3087 13.6328 30.3087C15.3937 30.3087 16.7428 29.5259 17.68 27.9607C18.6173 26.3671 19.0859 24.0903 19.0859 21.1308V18.8682C18.2907 18.7259 17.538 18.6547 16.828 18.6547C14.499 18.6547 12.6529 19.2665 11.2897 20.4904C9.95477 21.6856 9.28733 23.3079 9.28733 25.3567ZM33.4002 1.87826C33.4002 1.56522 33.4998 1.3091 33.6985 1.10989C33.9257 0.882207 34.1956 0.76838 34.5079 0.76838H40.1315C40.4439 0.76838 40.6996 0.867973 40.8983 1.06719C41.1257 1.26641 41.2675 1.53676 41.3244 1.87826L42.1765 6.06172H42.5172C43.2842 4.09807 44.3775 2.60398 45.7978 1.57945C47.2461 0.526468 48.9502 0 50.9098 0C53.0117 0 54.8152 0.554931 56.3204 1.66484C57.8541 2.77473 59.0328 4.35421 59.8565 6.40323H60.1974C61.4471 4.24036 62.853 2.63244 64.4151 1.57945C65.9771 0.526468 67.7237 0 69.655 0C71.7569 0 73.5745 0.569162 75.1082 1.70751C76.6703 2.84589 77.8632 4.46803 78.6868 6.57398C79.5104 8.67995 79.9224 11.1701 79.9224 14.0444V35.1753C79.9224 35.4883 79.8086 35.7585 79.5814 35.9861C79.3825 36.1854 79.127 36.2849 78.8147 36.2849H71.9982C71.6859 36.2849 71.416 36.1854 71.1888 35.9861C70.9899 35.7585 70.8906 35.4883 70.8906 35.1753V14.7274C70.8906 12.6499 70.493 11.0562 69.6977 9.94636C68.9024 8.83648 67.7523 8.28152 66.2468 8.28152C64.5995 8.28152 63.3357 8.93607 62.4552 10.2452C61.6033 11.5543 61.1772 13.4468 61.1772 15.9226V35.1753C61.1772 35.4883 61.0635 35.7585 60.8363 35.9861C60.6376 36.1854 60.3819 36.2849 60.0695 36.2849H53.2531C52.9407 36.2849 52.6708 36.1854 52.4436 35.9861C52.2447 35.7585 52.1454 35.4883 52.1454 35.1753V14.7274C52.1454 12.6499 51.7479 11.0562 50.9526 9.94636C50.1572 8.83648 49.0071 8.28152 47.5019 8.28152C45.8544 8.28152 44.5905 8.93607 43.71 10.2452C42.8581 11.5543 42.432 13.4468 42.432 15.9226V35.1753C42.432 35.4883 42.3186 35.7585 42.0914 35.9861C41.8925 36.1854 41.6367 36.2849 41.3244 36.2849H34.5079C34.1956 36.2849 33.9257 36.1854 33.6985 35.9861C33.4998 35.7585 33.4002 35.4883 33.4002 35.1753V1.87826ZM84.3528 26.3813C84.3528 23.8485 84.9778 21.6287 86.2275 19.7221C87.5055 17.8153 89.3089 16.3496 91.638 15.325C93.9952 14.3007 96.7504 13.7884 99.9028 13.7884C101.351 13.7884 102.53 13.8879 103.439 14.0872V13.1908C103.439 11.0278 103.041 9.41987 102.246 8.36691C101.451 7.28546 100.244 6.74474 98.6248 6.74474C96.0119 6.74474 94.3361 8.125 93.5976 10.8855C93.3704 11.6824 92.9019 12.0239 92.1917 11.91L86.3979 10.8855C85.9718 10.8001 85.6735 10.6151 85.5032 10.3306C85.3612 10.046 85.347 9.66178 85.4605 9.17798C86.1989 6.27517 87.761 4.02691 90.147 2.43322C92.561 0.811076 95.5858 0 99.2212 0C103.538 0 106.819 1.16681 109.062 3.50044C111.334 5.83406 112.471 9.23488 112.471 13.7031V35.1753C112.471 35.4883 112.357 35.7585 112.13 35.9861C111.931 36.1854 111.675 36.2849 111.363 36.2849H105.825C105.143 36.2849 104.717 35.915 104.547 35.1753L103.694 31.1626H103.354C102.587 33.0408 101.437 34.4921 99.9028 35.5166C98.3976 36.5412 96.6083 37.0535 94.535 37.0535C92.4617 37.0535 90.7434 36.6124 89.2096 35.7301C87.6758 34.8195 86.483 33.5673 85.6311 31.9734C84.7789 30.3515 84.3528 28.4874 84.3528 26.3813ZM93.6404 25.3567C93.6404 26.8652 94.0237 28.0747 94.7905 28.9853C95.5858 29.8676 96.6508 30.3087 97.9856 30.3087C99.7466 30.3087 101.096 29.5259 102.033 27.9607C102.97 26.3671 103.439 24.0903 103.439 21.1308V18.8682C102.644 18.7259 101.891 18.6547 101.181 18.6547C98.852 18.6547 97.0059 19.2665 95.6427 20.4904C94.3078 21.6856 93.6404 23.3079 93.6404 25.3567ZM117.072 30.0099C117.072 29.3839 117.242 28.843 117.583 28.3877L132.153 7.94001H118.52C118.208 7.94001 117.938 7.84042 117.711 7.6412C117.512 7.41352 117.412 7.14317 117.412 6.83013V1.87826C117.412 1.56522 117.512 1.3091 117.711 1.10989C117.938 0.882207 118.208 0.76838 118.52 0.76838H140.929C141.242 0.76838 141.497 0.882207 141.696 1.10989C141.923 1.3091 142.037 1.56522 142.037 1.87826V7.04355C142.037 7.66966 141.866 8.21036 141.525 8.66572L128.319 26.8508C129.114 26.7088 129.923 26.6376 130.747 26.6376C132.792 26.6376 134.667 26.8224 136.371 27.1924C138.103 27.534 139.892 28.103 141.738 28.8999C142.392 29.1846 142.718 29.6682 142.718 30.3515V35.2606C142.718 35.7159 142.576 36.0289 142.292 36.1996C142.008 36.3419 141.653 36.3277 141.227 36.157C139.097 35.3601 137.208 34.8053 135.561 34.492C133.942 34.1507 132.167 33.9797 130.236 33.9797C128.304 33.9797 126.458 34.1507 124.612 34.492C122.795 34.8336 120.778 35.3885 118.563 36.157C118.137 36.2993 117.782 36.2993 117.498 36.157C117.214 35.9861 117.072 35.6873 117.072 35.2606V30.0099ZM144.593 18.5266C144.593 15.0548 145.26 11.91 146.595 9.09259C147.93 6.24671 149.762 4.02691 152.091 2.43322C154.448 0.811076 157.061 0 159.93 0C162.798 0 165.44 0.811076 167.769 2.43322C170.126 4.02691 171.972 6.24671 173.307 9.09259C174.67 11.91 175.352 15.0548 175.352 18.5266C175.352 21.9986 174.67 25.1577 173.307 28.0035C171.972 30.821 170.126 33.0408 167.769 34.663C165.44 36.2566 162.827 37.0535 159.93 37.0535C157.033 37.0535 154.448 36.2566 152.091 34.663C149.762 33.0408 147.93 30.821 146.595 28.0035C145.26 25.1577 144.593 21.9986 144.593 18.5266ZM153.965 18.5266C153.965 22.141 154.477 24.9301 155.499 26.8936C156.522 28.8288 157.998 29.7964 159.93 29.7964C161.861 29.7964 163.352 28.8288 164.403 26.8936C165.454 24.9301 165.979 22.141 165.979 18.5266C165.979 14.9125 165.454 12.1377 164.403 10.2025C163.352 8.23883 161.861 7.25699 159.93 7.25699C157.998 7.25699 156.522 8.23883 155.499 10.2025C154.477 12.1377 153.965 14.9125 153.965 18.5266ZM179.953 1.87826C179.953 1.56522 180.052 1.3091 180.251 1.10989C180.478 0.882207 180.748 0.76838 181.06 0.76838H186.684C186.996 0.76838 187.252 0.867973 187.451 1.06719C187.678 1.26641 187.82 1.53676 187.877 1.87826L188.729 6.06172H189.07C189.837 4.12653 190.959 2.63244 192.435 1.57945C193.941 0.526468 195.702 0 197.718 0C199.877 0 201.737 0.569162 203.299 1.70751C204.89 2.84589 206.111 4.46803 206.963 6.57398C207.815 8.67995 208.241 11.1701 208.241 14.0444V35.1753C208.241 35.4883 208.127 35.7585 207.9 35.9861C207.701 36.1854 207.446 36.2849 207.133 36.2849H200.317C200.005 36.2849 199.735 36.1854 199.507 35.9861C199.309 35.7585 199.209 35.4883 199.209 35.1753V14.7274C199.209 12.6499 198.783 11.0562 197.931 9.94636C197.079 8.83648 195.872 8.28152 194.31 8.28152C192.578 8.28152 191.257 8.93607 190.348 10.2452C189.439 11.5543 188.985 13.4468 188.985 15.9226V35.1753C188.985 35.4883 188.871 35.7585 188.644 35.9861C188.445 36.1854 188.189 36.2849 187.877 36.2849H181.06C180.748 36.2849 180.478 36.1854 180.251 35.9861C180.052 35.7585 179.953 35.4883 179.953 35.1753V1.87826Z" fill="#175CFF"/>
<path d="M23.6865 41.193C23.1469 41.62 23.0332 42.3313 23.3457 43.3275C23.6297 44.2098 24.2971 45.3052 25.348 46.6144C29.5797 51.851 34.621 56.2051 40.4718 59.6771C46.3226 63.1492 52.5853 65.7104 59.2597 67.3609C65.9624 69.0401 72.8071 69.8796 79.7938 69.8796C88.7405 69.8796 97.261 68.5706 105.355 65.9522C113.45 63.3624 120.209 59.7197 125.634 55.024C127.537 53.3451 128.489 52.0075 128.489 51.0113C128.489 50.6413 128.332 50.2714 128.02 49.9014C127.594 49.4747 127.083 49.3324 126.486 49.4747C125.89 49.6168 125.052 49.9725 123.973 50.5418C118.775 53.2739 112.442 55.451 104.972 57.0732C97.5309 58.7237 89.763 59.549 81.6685 59.549C71.6428 59.549 61.9577 58.1831 52.6136 55.451C43.2694 52.7188 34.9903 48.4501 27.7763 42.6446C26.7255 41.8193 25.8733 41.2925 25.2202 41.0649C24.5953 40.8372 24.0841 40.88 23.6865 41.193Z" fill="#175CFF"/>
<path d="M118.35 43.3297C117.754 43.899 117.598 44.4966 117.882 45.1229C118.081 45.5782 118.464 45.8342 119.032 45.8911C119.6 45.9765 120.409 45.9195 121.46 45.7205C123.164 45.3505 124.939 45.0942 126.786 44.9519C128.632 44.8382 130.236 44.8666 131.6 45.0372C132.963 45.2365 133.815 45.5782 134.156 46.0618C134.667 46.8304 134.482 48.4523 133.602 50.9284C132.75 53.4043 131.585 55.8089 130.109 58.1427C129.54 59.0817 129.2 59.8216 129.086 60.3626C128.973 60.9032 129.115 61.3585 129.512 61.7285C129.768 61.9845 130.052 62.1126 130.364 62.1126C131.188 62.1126 132.381 61.3869 133.943 59.9356C136.755 57.4881 138.728 54.5853 139.865 51.2272C140.489 49.4911 140.873 47.6698 141.015 45.763C141.157 43.8564 140.944 42.4903 140.376 41.665C139.836 40.8681 138.643 40.2134 136.797 39.7014C134.98 39.1891 133.148 38.9329 131.301 38.9329C127.694 38.9329 124.272 39.7868 121.034 41.4943C119.841 42.1489 118.947 42.7607 118.35 43.3297Z" fill="#175CFF"/>
</svg>
