<?xml version="1.0" encoding="UTF-8"?>
<svg version="1.1" xmlns="http://www.w3.org/2000/svg" width="227" height="78">
<path d="M0 0 C5.0108289 2.61543892 7.38157771 5.59294355 10.1875 10.4375 C10.84105469 11.54996094 11.49460938 12.66242187 12.16796875 13.80859375 C12.77253906 14.86175781 13.37710938 15.91492188 14 17 C14.99670425 18.66863969 15.99543005 20.33608384 17 22 C17.43570313 21.39671875 17.87140625 20.7934375 18.3203125 20.171875 C25.00863889 11.19619889 25.00863889 11.19619889 30 9 C33.08202283 8.98986177 35.98456032 9.38351011 39 10 C37.14665211 16.85964739 33.27001142 22.70478126 29.63671875 28.74414062 C29.14300781 29.60330078 28.64929687 30.46246094 28.140625 31.34765625 C27.68204102 32.12117432 27.22345703 32.89469238 26.75097656 33.69165039 C25.75306761 36.02742264 25.75306761 36.02742264 26.72387695 38.52514648 C27.14499756 39.34184814 27.56611816 40.1585498 28 41 C28.362146 41.70640625 28.72429199 42.4128125 29.09741211 43.140625 C29.48678955 43.83671875 29.87616699 44.5328125 30.27734375 45.25 C30.70853516 46.0234375 31.13972656 46.796875 31.58398438 47.59375 C32.03064453 48.3878125 32.47730469 49.181875 32.9375 50 C33.38029297 50.7940625 33.82308594 51.588125 34.27929688 52.40625 C36.46292042 56.31138897 38.6969329 60.16155483 41 64 C41.33 42.88 41.66 21.76 42 0 C49.89512855 1.12787551 49.89512855 1.12787551 52.375 4.375 C52.85710937 4.98085937 53.33921875 5.58671875 53.8359375 6.2109375 C56.02493537 9.57523625 56.13366851 12.48405027 56.16113281 16.38598633 C56.17074036 17.48755569 56.1803479 18.58912506 56.19024658 19.72407532 C56.19449646 20.91470078 56.19874634 22.10532623 56.203125 23.33203125 C56.20882507 24.55653488 56.21452515 25.78103851 56.22039795 27.04264832 C56.22985113 29.63592667 56.23638319 32.22921705 56.24023438 34.82250977 C56.24993559 38.7861838 56.28095522 42.74933843 56.3125 46.71289062 C56.31903049 49.23176775 56.32428078 51.75064859 56.328125 54.26953125 C56.3404718 55.45408401 56.3528186 56.63863678 56.36553955 57.85908508 C56.33755596 68.21878709 56.33755596 68.21878709 53 73 C48.01923449 77.49483717 45.03552837 78.29983058 38.47265625 78.21484375 C34.15087243 77.83933331 31.98236796 76.12270624 29.1953125 72.9375 C26.39410984 69.18927153 24.08536702 65.23705356 21.75 61.1875 C21.06164063 60.00510742 21.06164063 60.00510742 20.359375 58.79882812 C19.23595614 56.86795196 18.11628756 54.93500474 17 53 C16.61328125 53.59167969 16.2265625 54.18335938 15.828125 54.79296875 C7.63644568 67.22242277 7.63644568 67.22242277 3 69 C0.421875 68.9765625 0.421875 68.9765625 -2.25 68.625 C-3.14203125 68.51414062 -4.0340625 68.40328125 -4.953125 68.2890625 C-5.62859375 68.19367188 -6.3040625 68.09828125 -7 68 C-5.60003231 64.25996511 -3.88587583 60.89421033 -1.890625 57.4375 C-1.30152344 56.39335938 -0.71242188 55.34921875 -0.10546875 54.2734375 C1.13532797 52.08441086 2.38804113 49.90209761 3.65234375 47.7265625 C4.23628906 46.68242188 4.82023437 45.63828125 5.421875 44.5625 C5.96424805 43.61503906 6.50662109 42.66757812 7.06542969 41.69140625 C8.47076656 38.59301425 8.47076656 38.59301425 6 34 C1.71 26.41 -2.58 18.82 -7 11 C-7.33 33.11 -7.66 55.22 -8 78 C-15.94594595 76.86486486 -15.94594595 76.86486486 -20 72 C-22.28639517 68.57040725 -22.26096673 67.28384187 -22.29052734 63.24682617 C-22.30328705 62.0651738 -22.31604675 60.88352142 -22.32919312 59.6660614 C-22.33141876 58.38794083 -22.33364441 57.10982025 -22.3359375 55.79296875 C-22.3425943 54.47968094 -22.3492511 53.16639313 -22.35610962 51.81330872 C-22.36808461 49.03167435 -22.37179037 46.25016418 -22.37060547 43.46850586 C-22.37040258 39.91415236 -22.39767123 36.36060114 -22.43214989 32.80643749 C-22.45982147 29.40610311 -22.45856976 26.0059142 -22.4609375 22.60546875 C-22.47530853 21.33342087 -22.48967957 20.06137299 -22.50448608 18.7507782 C-22.44759951 7.7390362 -22.44759951 7.7390362 -18 3 C-12.8187068 -0.8859699 -6.23071486 -1.03033957 0 0 Z " fill="#165BFF" transform="translate(22,0)"/>
<path d="M0 0 C4.71391399 -0.074557 9.42747929 -0.12879273 14.1418457 -0.16479492 C15.74314356 -0.17981466 17.34440075 -0.20023663 18.94555664 -0.22631836 C21.25677571 -0.26300438 23.56744756 -0.27979435 25.87890625 -0.29296875 C26.58648575 -0.30845261 27.29406525 -0.32393646 28.02308655 -0.33988953 C34.20380846 -0.34194856 38.81750622 1.00497458 43.41308594 5.20581055 C45.43102648 8.75893817 45.50843185 11.73530259 45.390625 15.70703125 C45.38496521 16.43242599 45.37930542 17.15782074 45.37347412 17.90519714 C45.35119099 20.20832008 45.30101487 22.50985224 45.25 24.8125 C45.22992434 26.37953472 45.21167543 27.94659399 45.1953125 29.51367188 C45.15135337 33.34305519 45.08238623 37.17125846 45 41 C35.41644898 42.87773828 26.10367694 44.30906615 16.3125 44.375 C15.4884668 44.38853516 14.66443359 44.40207031 13.81542969 44.41601562 C7.79895789 44.37175878 2.9500876 43.36007008 -1.875 39.5 C-4.96011842 35.38650878 -4.65256694 29.87148808 -4 25 C-1.25651845 20.28464108 1.57286592 18.40643503 6.6640625 16.59106445 C10.91712294 15.51490859 15.14159808 15.68896971 19.5 15.8125 C20.4178125 15.82603516 21.335625 15.83957031 22.28125 15.85351562 C24.52146803 15.88851903 26.76040594 15.93761131 29 16 C27.98487265 13.23147087 27.34325647 12.18523793 24.70629883 10.76220703 C21.89273032 9.96978837 19.61614396 9.77057142 16.69921875 9.8046875 C15.72275391 9.81113281 14.74628906 9.81757813 13.74023438 9.82421875 C12.22913086 9.84935547 12.22913086 9.84935547 10.6875 9.875 C9.14739258 9.88853516 9.14739258 9.88853516 7.57617188 9.90234375 C5.05068073 9.92583669 2.52531008 9.96170549 0 10 C0 6.7 0 3.4 0 0 Z M13 27 C12.33319632 30.04279372 12.33319632 30.04279372 13 33 C16.23914229 35.15942819 17.24859733 35.27232978 21 35.25 C22.299375 35.25773437 22.299375 35.25773437 23.625 35.265625 C26.265795 35.15414552 26.265795 35.15414552 29 33 C29.36362818 30.79274927 29.36362818 30.79274927 29.1875 28.375 C29.16042969 27.55773437 29.13335937 26.74046875 29.10546875 25.8984375 C29.05326172 24.95871094 29.05326172 24.95871094 29 24 C20.30149775 23.19026122 20.30149775 23.19026122 13 27 Z " fill="#FFFFFF" transform="translate(87,19)"/>
<path d="M0 0 C19.77055509 -1.80835959 19.77055509 -1.80835959 25.01953125 2.44921875 C26.73210819 5.26505579 28.01127098 7.86053055 29 11 C29.556875 10.29875 30.11375 9.5975 30.6875 8.875 C31.450625 7.92625 32.21375 6.9775 33 6 C33.72574219 4.91460937 34.45148438 3.82921875 35.19921875 2.7109375 C38.11146885 -0.10789314 38.45575941 -0.39915904 42.20703125 -0.5859375 C43.74328759 -0.54637725 45.27900852 -0.47526181 46.8125 -0.375 C47.60076172 -0.34792969 48.38902344 -0.32085938 49.20117188 -0.29296875 C51.13530157 -0.22263676 53.06801304 -0.11502458 55 0 C51.9857368 4.66493114 48.70620341 9.02979939 45.25 13.375 C44.74339844 14.01566406 44.23679688 14.65632813 43.71484375 15.31640625 C42.47859362 16.87921302 41.23958287 18.43983536 40 20 C41.57541193 23.57819624 43.75686314 26.31479973 46.25 29.3125 C47.04792969 30.27671875 47.84585938 31.2409375 48.66796875 32.234375 C50.60765605 34.53470768 52.57453206 36.80409251 54.5625 39.0625 C57 42 57 42 57 44 C39.12619526 45.90693034 39.12619526 45.90693034 34.12207031 42.85449219 C30.88793797 39.75745216 28.78828374 36.09885987 27 32 C27 31.34 27 30.68 27 30 C23.43889082 33.34016439 23.43889082 33.34016439 20.671875 37.3359375 C18.96946438 40.17627521 17.66728425 42.00592807 15 44 C9.75299692 45.12844638 4.29380599 44.51476385 -1 44 C0.76754075 39.81647159 3.620859 36.51070247 6.4375 33 C7.41572146 31.77111733 8.39359549 30.541958 9.37109375 29.3125 C9.82726074 28.74015625 10.28342773 28.1678125 10.75341797 27.578125 C12.20271679 25.74336833 13.61225063 23.88169406 15 22 C13.61266685 19.01083645 11.98574544 16.52199426 9.9609375 13.92578125 C9.38085938 13.17619141 8.80078125 12.42660156 8.203125 11.65429688 C7.59984375 10.88150391 6.9965625 10.10871094 6.375 9.3125 C5.1723459 7.76858646 3.97170701 6.22310025 2.7734375 4.67578125 C2.24153809 3.99427002 1.70963867 3.31275879 1.16162109 2.6105957 C0 1 0 1 0 0 Z " fill="#FFFFFF" transform="translate(136,19)"/>
<path d="M0 0 C5.94 0 11.88 0 18 0 C18 14.52 18 29.04 18 44 C12.72 44 7.44 44 2 44 C0 42 0 42 -0.24050903 40.16500854 C-0.23606781 39.42332428 -0.23162659 38.68164001 -0.22705078 37.91748047 C-0.22689972 37.07675995 -0.22674866 36.23603943 -0.22659302 35.36984253 C-0.21627045 34.46146637 -0.20594788 33.55309021 -0.1953125 32.6171875 C-0.1924826 31.68778351 -0.18965271 30.75837952 -0.18673706 29.80081177 C-0.17552069 26.8254115 -0.1504136 23.85030965 -0.125 20.875 C-0.11497208 18.86068142 -0.1058459 16.84635814 -0.09765625 14.83203125 C-0.07557661 9.88790544 -0.04103693 4.94400335 0 0 Z " fill="#FFFFFF" transform="translate(196,19)"/>
<path d="M0 0 C1.71703125 -0.01160156 1.71703125 -0.01160156 3.46875 -0.0234375 C6.5 0.375 6.5 0.375 8.37890625 1.68359375 C10.30119747 4.58377527 9.91230692 7.01764369 9.5 10.375 C7.35541169 13.21417129 6.14676877 14.24757952 2.625 14.94140625 C-5.7642239 14.93091972 -5.7642239 14.93091972 -9.3125 12.25 C-10.77376724 8.7121951 -10.68076659 6.99601753 -9.5 3.375 C-6.95115021 -0.28843156 -4.25098429 -0.02872287 0 0 Z " fill="#FFFFFF" transform="translate(205.5,-0.375)"/>
</svg>
