<svg width="127" height="44" viewBox="0 0 127 44" fill="none" xmlns="http://www.w3.org/2000/svg">
<path fill-rule="evenodd" clip-rule="evenodd" d="M7.45564 3.33188C7.45564 3.33188 26.5659 36.6585 27.9172 39.015C29.2676 41.3715 31.349 43.7566 35.4235 43.7566C39.4979 43.7566 43.4143 40.0336 43.4143 36.1046V7.60708C43.4143 5.20116 40.7822 0.047848 35.9544 0.047848V38.0291C35.9544 38.0291 19.2675 9.07905 16.9283 5.02042C14.5891 0.961698 12.2714 0 9.55513 0C6.83884 0 0 0.945807 0 8.65838V35.5822C0 39.1822 3.06678 43.635 7.38691 43.635L7.45564 3.33188Z" fill="#09005D"/>
<path fill-rule="evenodd" clip-rule="evenodd" d="M8.75764 37.7112C8.75764 37.7112 21.8443 14.0735 23.8923 10.3751C25.9394 6.67676 29.6693 4.03692 34.0247 6.21434C34.0247 6.21434 21.6063 28.5227 19.1503 32.8083C16.7794 36.9475 14.6618 39.6295 8.75764 37.7112Z" fill="#09005D"/>
<path fill-rule="evenodd" clip-rule="evenodd" d="M90.7815 26.5694L90.74 26.5939L84.559 35.0254H75.7555L85.7633 22.5078L85.7768 22.4992L76.4995 10.749H87.9446L92.826 17.9334L92.8443 17.9512L92.886 17.9239L97.8528 10.749H106.88L97.6133 22.4895L97.6399 22.5154L108.065 35.0254H96.8777L90.7815 26.5694Z" fill="#09005D"/>
<path fill-rule="evenodd" clip-rule="evenodd" d="M119.816 10.751V35.0273C119.816 35.0273 114.673 35.0273 112 35.0273C111.582 35.0273 111.182 34.8616 110.887 34.5665C110.591 34.2714 110.426 33.8713 110.426 33.454C110.426 28.0755 110.426 10.751 110.426 10.751H119.816Z" fill="#09005D"/>
<path fill-rule="evenodd" clip-rule="evenodd" d="M120.514 3.86311C120.514 5.99435 118.784 7.72483 116.652 7.72483H113.691C111.56 7.72483 109.829 5.99435 109.829 3.86311C109.829 1.73146 111.56 0.000976562 113.691 0.000976562H116.652C118.784 0.000976562 120.514 1.73146 120.514 3.86311Z" fill="#09005D"/>
<path fill-rule="evenodd" clip-rule="evenodd" d="M49.0888 16.0968V11.1321C49.0888 11.1321 52.7431 10.751 59.8148 10.751C66.8873 10.751 74.0294 10.6612 74.0294 18.6084V33.5989H71.8612C70.5425 33.5989 63.6435 35.3033 57.5117 35.3033C51.3798 35.3033 46.6886 33.6296 46.6886 27.5894C46.6886 21.5492 52.269 19.8935 57.6036 19.8935H65.183V18.8091C65.183 17.93 63.8059 15.6694 60.399 15.6694C59.5202 15.6694 51.0955 15.6572 49.0888 16.0968ZM65.213 24.0176C65.213 24.0176 62.9898 23.9915 60.3594 23.9915C57.729 23.9915 55.5849 24.7502 55.5849 27.3142C55.5849 29.8783 57.7831 30.7417 60.3594 30.7417C62.9357 30.7417 65.213 30.2185 65.213 28.6225V24.0176Z" fill="#09005D"/>
</svg>
