<svg width="225" height="50" viewBox="0 0 225 50" fill="none" xmlns="http://www.w3.org/2000/svg">
<path d="M19.9534 0C31.4829 0 39.9069 8.54037 39.9069 19.4876C39.9069 30.6871 31.4829 39.441 19.9534 39.441C8.42394 39.441 3.33968e-05 30.6871 3.33968e-05 19.4876C-0.0193765 8.54037 8.42394 0 19.9534 0ZM19.9534 30.9006C25.66 30.9006 30.2601 25.9899 30.2601 19.4876C30.2601 13.2376 25.6794 8.54037 19.9534 8.54037C14.2469 8.54037 9.64677 13.2376 9.64677 19.4876C9.64677 25.9899 14.2275 30.9006 19.9534 30.9006Z" fill="#175CFF"/>
<path d="M41.1113 11.3161H49.9817V13.7229C49.9817 14.6352 49.8846 15.431 49.8846 15.431H49.9817C51.2627 13.2959 53.8831 10.6755 58.7355 10.6755C64.2868 10.6755 68.6152 13.2376 68.6152 20.9822V38.8005H59.3761V22.6903C59.3761 20.1282 58.3668 19.0606 56.3287 19.0606C53.456 19.0606 51.6897 20.6522 50.8939 23.0008C50.5251 24.0684 50.3505 25.2912 50.3505 26.6305V38.8005H41.1113V11.3161Z" fill="#175CFF"/>
<path d="M69.7598 0.640625H83.7931C91.4213 0.640625 96.759 4.05677 96.759 10.6173C96.759 13.82 95.2062 17.0808 92.3335 18.7307V18.8277C96.7008 20.167 98.3118 24.049 98.3118 27.4263C98.3118 35.7532 91.3824 38.8006 83.7931 38.8006H69.7598V0.640625ZM83.9096 15.431C86.2582 15.431 87.2675 13.7229 87.2675 11.9178C87.2675 10.1515 86.2582 8.65693 83.7543 8.65693H79.1154V15.431H83.9096ZM84.7054 30.8037C87.4228 30.8037 88.7621 28.9403 88.7621 26.8052C88.7621 24.6701 87.481 22.9038 84.7636 22.9038H79.1154V30.8037H84.7054Z" fill="#175CFF"/>
<path d="M98.7969 11.3159H108.036V27.4262C108.036 29.9883 109.045 31.0558 110.967 31.0558C114.927 31.0558 116.79 27.5814 116.79 23.4859V11.3159H126.029V38.8004H117.178V36.3936C117.178 35.4813 117.275 34.6855 117.275 34.6855H117.178C115.684 37.6164 112.267 39.4409 108.579 39.4409C103.145 39.4409 98.8163 36.8788 98.8163 29.1342L98.7969 11.3159Z" fill="#175CFF"/>
<path d="M130.376 41.3043C130.376 41.3043 131.871 42.3136 133.21 42.3136C134.704 42.3136 136.684 41.8866 137.635 39.538L138.179 38.2569L126.475 11.3159H136.937L140.993 23.9712C141.478 25.4658 142.003 28.2414 142.003 28.2414H142.1C142.1 28.2414 142.643 25.621 143.012 24.1265L146.486 11.3159H156.579L145.322 41.7313C143.031 47.8648 138.218 49.9999 133.85 49.9999C130.221 49.9999 127.445 48.0783 127.445 48.0783L130.376 41.3043Z" fill="#175CFF"/>
<path d="M223.001 12.2089C222.38 11.6266 221.526 11.3354 220.613 11.3354H162.481C161.064 11.3354 159.744 12.2283 159.259 13.5288L150.33 37.6359C149.942 38.684 150.116 39.8486 150.757 40.7609C151.398 41.6732 152.407 42.2167 153.533 42.2167H220.613C222.496 42.2167 224.01 40.6833 224.01 38.8199V14.5575C223.991 13.6452 223.641 12.8106 223.001 12.2089ZM164.829 34.3168H160.501V29.9884H164.829V34.3168ZM173.661 34.6274C168.653 34.6274 165.858 31.153 165.858 27.2904C165.858 23.5443 168.634 19.9729 173.661 19.9729C177.465 19.9729 179.231 22.0886 179.231 22.0886L177.252 25.233C177.252 25.233 175.893 23.8743 173.971 23.8743C171.739 23.8743 170.633 25.5629 170.633 27.2128C170.633 28.8626 171.778 30.6872 174.146 30.6872C176.106 30.6872 177.97 28.9985 177.97 28.9985L179.678 32.2788C179.658 32.3176 177.582 34.6274 173.661 34.6274ZM187.092 34.6274C182.686 34.6274 179.154 31.7159 179.154 27.3486C179.154 22.9426 182.686 19.9923 187.054 19.9923C191.479 19.9923 195.012 22.962 195.012 27.3486C195.012 31.7353 191.479 34.6274 187.092 34.6274ZM217.779 34.3168H213.082V26.0288C213.082 25 212.888 24.2625 211.995 24.2625C210.501 24.2625 209.705 25.3494 209.414 26.9022C209.297 27.3875 209.297 27.9698 209.297 28.5327V34.3168H204.6V26.0288C204.6 25 204.406 24.2625 203.513 24.2625C202.038 24.2625 201.281 25.2912 200.951 26.7858C200.835 27.3098 200.815 27.9309 200.815 28.5327V34.3168H196.118V20.3222H200.621V21.5451C200.621 22.0109 200.563 22.4185 200.563 22.4185H200.621C201.281 21.448 202.582 19.9923 204.775 19.9923C206.541 19.9923 207.958 20.7881 208.696 22.3603H208.754C209.491 21.1957 211.141 19.9923 213.238 19.9923C215.8 19.9923 217.779 21.3704 217.779 25.233V34.3168Z" fill="#175CFF"/>
<path d="M187.091 23.8936C185.383 23.8936 183.908 25.2328 183.908 27.3485C183.908 29.4448 185.383 30.7259 187.091 30.7259C188.8 30.7259 190.275 29.4448 190.275 27.3485C190.255 25.2328 188.8 23.8936 187.091 23.8936Z" fill="#175CFF"/>
</svg>
