<svg width="248" height="70" viewBox="0 0 248 70" fill="none" xmlns="http://www.w3.org/2000/svg">
<path d="M12.7638 0.245438C7.68785 2.35952 2.10772 8.33208 0.345329 15.8289C-1.8866 25.3277 7.4015 29.3445 8.16331 28.0274C9.05996 26.4799 6.49899 25.9566 5.97184 21.0282C5.29053 14.6627 8.2647 7.54999 12.0078 4.42915C12.7036 3.84933 12.6705 4.65634 12.6705 6.14908C12.6705 8.81843 12.5222 32.7814 12.5222 37.7825C12.5222 44.5496 12.2413 46.6865 11.7368 48.7981C11.2256 50.9379 10.4038 52.3838 11.0265 52.9408C11.7223 53.5638 14.6929 52.0819 16.4126 49.6937C18.4747 46.8295 19.1966 43.3897 19.3262 39.6541C19.4827 35.151 19.4761 28.0056 19.4827 23.9298C19.489 20.1918 19.546 9.24596 19.4169 2.66573C19.3852 1.05173 14.8866 -0.641584 12.7635 0.243475M193.01 31.915C192.846 35.4331 192.063 38.1829 191.092 40.1225C189.212 43.8775 185.309 45.0434 183.653 39.6455C182.75 36.7031 182.708 31.789 183.357 27.683C184.017 23.5001 185.863 20.341 188.918 20.6259C191.931 20.9075 193.342 24.7712 193.01 31.915ZM142.209 53.7419C142.168 59.5874 141.243 64.7126 139.261 66.2012C136.448 68.312 132.669 66.7287 133.451 62.4632C134.144 58.6886 137.419 54.8338 142.217 50.1239C142.217 50.1239 142.227 51.1979 142.209 53.7419ZM141.441 31.881C141.269 35.0852 140.434 38.3042 139.523 40.1229C137.643 43.8779 133.713 45.0518 132.084 39.646C130.97 35.9525 131.237 31.1722 131.788 28.1602C132.503 24.2522 134.236 20.6268 137.349 20.6268C140.375 20.6268 141.867 23.9304 141.441 31.8812V31.881ZM112.012 31.8319C111.827 35.2256 111.162 38.0624 110.094 40.1229C108.162 43.852 104.34 45.0347 102.655 39.646C101.44 35.7603 101.853 30.462 102.359 27.5999C103.109 23.3526 104.987 20.3414 107.92 20.6268C110.932 20.9196 112.396 24.7714 112.012 31.8322V31.8319ZM246.878 35.7958C246.142 35.7958 245.806 36.551 245.528 37.8223C244.563 42.2423 243.55 43.2403 242.243 43.2403C240.783 43.2403 239.471 41.0517 239.134 36.6705C238.869 33.2255 238.911 26.8831 239.25 20.574C239.319 19.2778 238.96 17.9952 235.466 16.7322C233.962 16.1889 231.776 15.389 230.688 18.0027C227.613 25.387 226.41 31.2495 226.127 33.6311C226.113 33.7543 225.961 33.7795 225.934 33.4915C225.754 31.5841 225.351 28.1178 225.301 20.8353C225.291 19.4144 224.988 18.205 223.412 17.2148C222.389 16.5723 219.284 15.4359 218.165 16.7878C217.197 17.8935 216.075 20.8689 214.909 24.396C213.961 27.2627 213.301 29.2019 213.301 29.2019C213.301 29.2019 213.314 21.4671 213.325 18.5331C213.33 17.4262 212.567 17.0574 212.337 16.9905C211.301 16.6915 209.261 16.1918 208.395 16.1918C207.326 16.1918 207.064 16.7862 207.064 17.6522C207.064 17.7655 206.896 27.8359 206.896 34.8775C206.896 35.1833 206.896 35.5171 206.899 35.8716C206.308 39.108 204.391 43.5013 202.306 43.5013C200.219 43.5013 199.235 41.6646 199.235 33.2699C199.235 28.3726 199.382 26.2432 199.455 22.7012C199.497 20.661 199.579 19.0944 199.574 18.7388C199.559 17.6486 197.664 17.0991 196.782 16.896C195.896 16.6912 195.127 16.6119 194.526 16.6459C193.675 16.6937 193.073 17.249 193.073 18.0128C193.073 18.4224 193.078 19.2011 193.078 19.2011C191.982 17.4879 190.22 16.2954 189.047 15.9498C185.889 15.0166 182.593 15.8435 180.107 19.3046C178.132 22.0545 176.941 25.1691 176.472 29.644C176.129 32.9154 176.241 36.2329 176.85 39.0385C176.114 42.2043 174.748 43.5013 173.252 43.5013C171.08 43.5013 169.506 39.974 169.688 33.8738C169.809 29.8614 170.616 27.0456 171.498 22.972C171.874 21.2354 171.569 20.3263 170.802 19.4549C170.099 18.6558 168.601 18.2475 166.448 18.7497C164.915 19.1077 162.722 19.4927 160.716 19.7884C160.716 19.7884 160.837 19.3079 160.936 18.4606C161.458 14.0173 156.605 14.3778 155.057 15.797C154.133 16.6443 153.504 17.6436 153.265 19.4404C152.887 22.2917 155.224 23.6365 155.224 23.6365C154.457 27.1291 152.577 31.6916 150.637 34.9902C149.597 36.7575 148.802 38.0671 147.776 39.4592C147.772 38.9409 147.769 38.4225 147.767 37.9066C147.744 30.5638 147.842 24.7848 147.885 22.7019C147.927 20.6618 148.01 19.1366 148.005 18.7811C147.993 17.9836 147.525 17.6825 146.552 17.3012C145.691 16.964 144.674 16.7306 143.618 16.6492C142.286 16.5457 141.483 17.2489 141.504 18.0804C141.508 18.2374 141.508 19.2014 141.508 19.2014C140.412 17.4881 138.65 16.2957 137.477 15.9501C134.319 15.0173 131.023 15.8442 128.537 19.3048C126.562 22.0548 125.269 25.9137 124.902 29.6102C124.561 33.0554 124.624 35.9832 125.089 38.4494C124.587 40.9191 123.143 43.5016 121.51 43.5016C119.423 43.5016 118.236 41.6649 118.236 33.2702C118.236 28.3729 118.384 26.2435 118.456 22.7019C118.498 20.6618 118.58 19.0947 118.575 18.7396C118.56 17.6493 116.665 17.0998 115.783 16.8963C114.861 16.684 114.064 16.606 113.453 16.6508C112.646 16.7106 112.079 17.4296 112.079 17.9658V19.2014C110.983 17.4881 109.221 16.2957 108.048 15.9501C104.89 15.0173 101.613 15.8575 99.1085 19.3048C97.4755 21.5526 96.1535 24.0447 95.4731 29.5612C95.2765 31.1554 95.1897 32.6482 95.2009 34.0435C94.5498 38.006 91.6737 42.5729 89.3211 42.5729C87.9444 42.5729 86.6333 39.9161 86.6333 34.2537C86.6333 26.7111 87.1025 15.9722 87.1818 14.9371C87.1818 14.9371 90.1543 14.8869 90.7299 14.8802C92.2126 14.864 93.5555 14.8989 95.5303 14.7984C96.5208 14.7481 97.4751 11.2111 96.4528 10.7734C95.9895 10.5752 92.7147 10.4016 91.4166 10.3742C90.325 10.3496 87.2861 10.1258 87.2861 10.1258C87.2861 10.1258 87.5587 2.99779 87.6222 2.24481C87.676 1.61722 86.8599 1.2941 86.392 1.09803C85.2541 0.619159 84.236 0.389879 83.0292 0.142342C81.362 -0.19988 80.6056 0.134865 80.4579 1.53497C80.2354 3.65987 80.1202 9.8837 80.1202 9.8837C78.8967 9.8837 74.7174 9.64573 73.4936 9.64573C72.3565 9.64573 71.1292 14.5114 72.7013 14.5712C74.51 14.641 77.662 14.7012 79.7516 14.7639C79.7516 14.7639 79.6585 25.6799 79.6585 29.0499C79.6585 29.4085 79.6616 29.7537 79.6623 30.0888C78.5122 36.053 74.4616 39.2748 74.4616 39.2748C75.3315 35.3291 73.5545 32.3661 70.3537 29.8578C69.1744 28.9336 66.8464 27.1837 64.2417 25.2663C64.2417 25.2663 65.7503 23.7868 67.0881 20.8105C68.0361 18.7023 68.077 16.2895 65.7503 15.7575C61.9058 14.8778 58.7359 17.6872 57.7904 20.6863C57.0578 23.0097 57.4485 24.7338 58.8836 26.5247C58.9884 26.6556 59.1019 26.7893 59.2192 26.9239C58.3514 28.5882 57.1592 30.829 56.1495 32.5667C53.3469 37.3912 51.2297 41.2074 49.6297 41.2074C48.3507 41.2074 48.3678 37.333 48.3678 33.7055C48.3678 30.5783 48.5999 25.8768 48.7853 21.0091C48.8466 19.3992 48.0376 18.4821 46.6814 17.6515C45.8574 17.1468 44.0988 16.1546 43.0803 16.1546C41.5558 16.1546 37.1574 16.361 33.0015 28.3223C32.4778 29.83 31.4489 32.577 31.4489 32.577L31.5374 18.193C31.5374 17.8558 31.3569 17.5298 30.9436 17.3067C30.2433 16.9283 28.3728 16.1546 26.7096 16.1546C25.9172 16.1546 25.5217 16.5213 25.5217 17.2523L25.3767 39.7562C25.3767 41.4661 25.4215 43.4608 25.5914 44.3332C25.7606 45.2068 26.0349 45.9174 26.3745 46.3402C26.7137 46.7621 27.106 47.0841 27.7528 47.2169C28.3549 47.3402 31.6514 47.7614 31.8228 46.5079C32.028 45.0057 32.0359 43.3809 33.7669 37.321C36.4617 27.8866 39.9753 23.2834 41.627 21.6487C41.9158 21.3629 42.2456 21.3459 42.2297 21.8135C42.1592 23.882 41.9112 29.0504 41.7443 33.4414C41.2969 45.1921 43.4453 47.3702 46.5155 47.3702C48.8644 47.3702 52.1754 45.048 55.7247 39.1697C57.9375 35.5065 60.086 31.9146 61.6297 29.3258C62.7054 30.3166 63.9126 31.383 65.1189 32.5223C67.9223 35.1697 68.8428 37.6854 68.2321 40.0719C67.765 41.8963 66.006 43.7765 62.8753 41.949C61.9628 41.4159 61.5733 41.0039 60.6558 40.4029C60.1628 40.08 59.4102 39.9835 58.959 40.3217C57.7868 41.2011 57.1165 42.3196 56.7337 43.7043C56.3613 45.0517 57.7175 45.764 59.1234 46.387C60.334 46.9232 62.9358 47.4091 64.5951 47.4644C71.0602 47.6795 76.2392 44.3585 79.8445 35.7917C80.4898 43.1902 83.2365 47.3768 88.0085 47.3768C91.1989 47.3768 94.3976 43.2735 95.7964 39.237C96.198 40.8824 96.7924 42.3133 97.56 43.5233C101.237 49.3201 108.371 48.0725 111.954 43.15C113.062 41.6289 113.23 41.0824 113.23 41.0824C113.753 45.7304 117.515 47.3544 119.669 47.3544C122.081 47.3544 124.572 46.2197 126.317 42.3093C126.522 42.7337 126.745 43.1389 126.989 43.5231C130.666 49.32 137.8 48.0723 141.383 43.1498C141.552 42.9189 141.698 42.7095 141.826 42.5215L141.932 45.5745C141.932 45.5745 139.887 47.4403 138.633 48.5849C133.11 53.6263 128.911 57.4512 128.602 61.9052C128.205 67.5846 132.835 69.6953 136.337 69.9719C140.056 70.2656 143.241 68.2214 145.199 65.3604C146.921 62.8423 148.048 57.4225 147.965 52.0696C147.932 49.9261 147.878 47.2006 147.835 44.2791C149.776 42.0363 151.963 39.2016 153.977 35.8835C156.171 32.2674 158.523 27.4114 159.727 23.6322C159.727 23.6322 161.771 23.6497 163.951 23.5076C164.649 23.4623 164.849 23.6039 164.72 24.1128C164.564 24.7274 161.965 34.7031 164.337 41.3485C165.961 45.8977 169.622 47.3613 171.792 47.3613C174.332 47.3613 176.763 45.4524 178.065 42.6178C178.222 42.9338 178.386 43.2396 178.565 43.5219C182.242 49.3188 189.35 48.0636 192.959 43.1486C193.773 42.0397 194.235 41.081 194.235 41.081C195.009 45.8915 198.769 47.3775 200.923 47.3775C203.166 47.3775 205.295 46.4625 207.022 42.396C207.094 44.1864 207.208 45.6505 207.387 46.1121C207.497 46.3944 208.134 46.7487 208.598 46.9199C210.65 47.6771 212.743 47.319 213.517 47.1633C214.054 47.0552 214.472 46.6271 214.529 45.5214C214.679 42.6182 214.587 37.7404 215.472 34.1153C216.956 28.0315 218.341 25.6715 218.999 24.5032C219.366 23.8486 219.781 23.7406 219.796 24.4334C219.827 25.8351 219.897 29.9516 220.472 35.4822C220.895 39.5498 221.459 41.954 221.893 42.7149C223.131 44.8909 224.659 44.9939 225.904 44.9939C226.696 44.9939 228.352 44.7762 228.204 43.3915C228.131 42.7166 228.258 38.5453 229.722 32.5516C230.678 28.6374 232.271 25.1008 232.846 23.8079C233.058 23.331 233.157 23.7069 233.153 23.7801C233.032 26.4757 232.761 35.2925 233.864 40.1146C235.36 46.647 239.688 47.378 241.196 47.378C244.416 47.378 247.049 44.9412 247.936 38.5292C248.15 36.9862 247.833 35.7947 246.886 35.7947" fill="#175CFF"/>
</svg>
