<svg width="305" height="56" viewBox="0 0 305 56" fill="none" xmlns="http://www.w3.org/2000/svg">
<path d="M268.272 55.07H278.421V38.1986L292.582 55.07H305L288.514 35.6259L302.597 18.7661H291.297L278.421 34.3054V0L268.272 1.36681V55.07ZM244.867 17.8361C233.601 17.8361 225.777 25.6228 225.777 36.9124C225.777 48.202 233.601 55.9887 244.867 55.9887C256.134 55.9887 263.958 48.202 263.958 36.9124C263.958 25.6228 256.134 17.8361 244.867 17.8361ZM244.867 47.0995C239.648 47.0995 236.071 42.9534 236.071 36.9124C236.071 30.8714 239.648 26.7253 244.867 26.7253C250.087 26.7253 253.664 30.8714 253.664 36.9124C253.664 42.9534 250.087 47.0995 244.867 47.0995ZM203.624 17.8361C192.357 17.8361 184.533 25.6228 184.533 36.9124C184.533 48.202 192.357 55.9887 203.624 55.9887C214.89 55.9887 222.714 48.202 222.714 36.9124C222.714 25.6228 214.89 17.8361 203.624 17.8361ZM203.624 47.0995C198.404 47.0995 194.827 42.9534 194.827 36.9124C194.827 30.8714 198.404 26.7253 203.624 26.7253C208.844 26.7253 212.42 30.8714 212.42 36.9124C212.42 42.9534 208.844 47.0995 203.624 47.0995ZM164.783 17.8361C160.089 17.8361 156.199 19.731 153.763 23.1994V0L143.603 1.35514V55.0584H152.612L152.79 49.4539C155.194 53.6343 159.497 55.9887 164.783 55.9887C174.418 55.9887 181.471 47.9491 181.471 36.9124C181.471 25.8753 174.452 17.8361 164.783 17.8361ZM162.38 47.0995C157.161 47.0995 153.584 42.9534 153.584 36.9124C153.584 30.8714 157.161 26.7253 162.38 26.7253C167.6 26.7253 171.177 30.8714 171.177 36.9124C171.177 42.9534 167.6 47.0995 162.38 47.0995ZM123.261 47.5703C117.873 47.5703 114.006 44.9976 112.687 40.5647H137.69C137.936 39.2095 138.104 37.6015 138.104 36.5219C138.104 24.8417 131.744 17.8361 121.059 17.8361C110.273 17.8361 102.807 25.6228 102.807 36.9124C102.807 48.3513 110.631 55.9887 122.244 55.9887C128.257 55.9887 134.102 53.9215 137.757 50.4875L134.102 43.8724C130.559 46.3874 127.083 47.5703 123.261 47.5703ZM120.992 25.9443C125.686 25.9443 128.681 28.8728 128.681 33.4094V33.4441H112.475C113.447 28.6319 116.476 25.9443 120.992 25.9443ZM86.9129 56C92.1662 56 97.3075 53.9328 100.929 50.3495L96.9609 43.4932C94.1442 45.7443 90.9479 46.9615 87.9188 46.9615C82.2855 46.9615 78.5301 42.9187 78.5301 36.9237C78.5301 30.9287 82.2855 26.8859 87.9188 26.8859C90.7017 26.8859 93.7308 27.9195 96.1898 29.7458L100.225 22.7399C96.9609 19.708 91.909 17.8474 86.9015 17.8474C75.8811 17.8474 68.0907 25.749 68.0907 36.9237C68.1017 48.0641 75.8921 56 86.9129 56ZM54.6446 18.7661L54.4659 24.4169C52.0627 20.2019 47.7596 17.8474 42.4729 17.8474C32.8047 17.8474 25.7854 25.887 25.7854 36.9237C25.7854 47.9608 32.8494 56 42.4729 56C47.7596 56 52.0737 53.6456 54.4659 49.4652L54.6446 55.0697H63.6533V18.7661H54.6446ZM44.8758 47.0995C39.6563 47.0995 36.0795 42.9534 36.0795 36.9124C36.0795 30.8714 39.6563 26.7253 44.8758 26.7253C50.0957 26.7253 53.6721 30.8714 53.6721 36.9124C53.6721 42.9534 50.0843 47.0995 44.8758 47.0995ZM25.0253 18.8343H15.8937V15.7332C15.8937 11.0933 17.6597 9.31335 22.2424 9.31335C23.6617 9.31335 24.8129 9.34766 25.4725 9.41664V1.45772C24.2204 1.10151 21.1693 0.74566 19.4033 0.74566C10.0704 0.74566 5.76723 5.27057 5.76723 15.0441V18.8227H0V27.5973H5.76723V55.0577H15.9047V27.6086H23.4607L25.0253 18.8343Z" fill="#175CFF"/>
</svg>
