<svg width="67" height="65" viewBox="0 0 67 65" fill="none" xmlns="http://www.w3.org/2000/svg">
<rect width="67" height="65" rx="10" fill="#175CFF"/>
<path d="M28.0825 49L25.0724 43.9524L19.3112 42.7013L19.8808 36.8902L16 32.5L19.8808 28.1098L19.3112 22.2987L25.0724 21.0476L28.0825 16L33.5 18.2802L38.9175 16L41.9276 21.0476L47.6888 22.2987L47.1192 28.1098L51 32.5L47.1192 36.8902L47.6888 42.7013L41.9276 43.9524L38.9175 49L33.5 46.7198L28.0825 49ZM29.7668 43.9944L33.5 42.3816L37.3085 43.9944L39.353 40.5133L43.3664 39.5897L43.0324 35.5143L45.7116 32.5L43.0324 29.4114L43.3664 25.3361L39.353 24.4867L37.2332 21.0056L33.5 22.6184L29.6915 21.0056L27.647 24.4867L23.6336 25.3361L23.9676 29.4114L21.2884 32.5L23.9676 35.5143L23.6336 39.6639L27.647 40.5133L29.7668 43.9944ZM31.9189 38.0043L40.6608 29.3806L38.2971 27.0168L31.9189 33.3088L28.7029 30.1686L26.3392 32.5L31.9189 38.0043Z" fill="white"/>
</svg>
