<svg width="67" height="67" viewBox="0 0 67 67" fill="none" xmlns="http://www.w3.org/2000/svg">
<rect width="67" height="67" rx="10" fill="#175CFF"/>
<path d="M33.4979 46.5751C33.9869 46.5751 34.4554 46.5473 34.9034 46.4916C35.3515 46.436 35.8062 46.3525 36.2676 46.2412L34.3123 43.3057H28.6088V41.6752C28.6088 40.7782 28.9278 40.0106 29.5656 39.3722C30.2032 38.734 30.9699 38.415 31.8657 38.415H35.1226V33.5H31.8803C31.4211 33.5 31.0315 33.3437 30.7115 33.0312C30.3914 32.7187 30.2314 32.3314 30.2314 31.8695V28.6088H29.498C28.792 28.6088 28.1929 28.3696 27.7009 27.8913C27.2086 27.4126 26.9624 26.8179 26.9624 26.1071C26.9624 25.8611 26.9972 25.6151 27.0668 25.3691C27.1364 25.1231 27.2407 24.8907 27.3799 24.6719L29.8975 20.9676C27.1482 21.7568 24.8822 23.2945 23.0994 25.5807C21.3164 27.8666 20.4249 30.5064 20.4249 33.5H22.0713V31.8799C22.0713 31.421 22.2273 31.0315 22.5392 30.7115C22.8515 30.3914 23.2383 30.2314 23.6997 30.2314H26.9566C27.418 30.2314 27.8087 30.3914 28.1288 30.7115C28.4488 31.0315 28.6088 31.4209 28.6088 31.8795V33.4979C28.6088 33.9565 28.4488 34.3459 28.1288 34.6659C27.8087 34.986 27.4182 35.146 26.957 35.146V36.7765C26.957 37.6734 26.6382 38.4411 26.0007 39.0795C25.3634 39.7182 24.5971 40.0376 23.7018 40.0376H22.1965C23.3495 41.994 24.9171 43.5726 26.8994 44.7734C28.8817 45.9746 31.0812 46.5751 33.4979 46.5751ZM45.9135 37.4966C46.1319 36.8565 46.2968 36.2059 46.4081 35.5446C46.5195 34.8834 46.5751 34.2019 46.5751 33.5C46.5751 30.4513 45.649 27.7632 43.7966 25.4359C41.9443 23.1085 39.6016 21.5773 36.7686 20.8423V25.3382C37.6661 25.3382 38.4343 25.6584 39.0733 26.2987C39.7125 26.9391 40.0321 27.7088 40.0321 28.608V31.8774C40.5486 31.8774 41.0078 31.9361 41.4097 32.0536C41.8113 32.171 42.2069 32.4245 42.5965 32.8141L45.9135 37.4966ZM33.5 51C31.0644 51 28.7836 50.5414 26.6577 49.6241C24.5321 48.7069 22.6831 47.4619 21.1107 45.8893C19.5381 44.3169 18.2931 42.4679 17.3759 40.3423C16.4586 38.2164 16 35.9356 16 33.5C16 31.0644 16.4586 28.7836 17.3759 26.6577C18.2931 24.5321 19.5381 22.6831 21.1107 21.1107C22.6831 19.5381 24.5321 18.2931 26.6577 17.3759C28.7836 16.4586 31.0644 16 33.5 16C35.9356 16 38.2164 16.4586 40.3423 17.3759C42.4679 18.2931 44.3169 19.5381 45.8893 21.1107C47.4619 22.6831 48.7069 24.5321 49.6241 26.6577C50.5414 28.7836 51 31.0644 51 33.5C51 35.9356 50.5414 38.2164 49.6241 40.3423C48.7069 42.4679 47.4619 44.3169 45.8893 45.8893C44.3169 47.4619 42.4679 48.7069 40.3423 49.6241C38.2164 50.5414 35.9356 51 33.5 51Z" fill="white"/>
</svg>
