<svg width="67" height="67" viewBox="0 0 67 67" fill="none" xmlns="http://www.w3.org/2000/svg">
<rect width="67" height="67" rx="10" fill="#175CFF"/>
<path d="M33.5 44.2625L40.9357 36.8268L37.908 33.7469L35.6851 35.9698V29.991H31.3149V35.9698L29.092 33.7727L26.0643 36.8526L33.5 44.2625ZM20.8916 27.3426V46.1084H46.1084V27.3426H20.8916ZM20.8916 51C19.5287 51 18.3727 50.5255 17.4236 49.5764C16.4745 48.6273 16 47.4713 16 46.1084V24.3328C16 23.7455 16.0997 23.1867 16.299 22.6563C16.4984 22.1259 16.7799 21.6394 17.1435 21.1967L20.2077 17.6253C20.6504 17.0903 21.1847 16.6856 21.8104 16.4112C22.4362 16.1371 23.0904 16 23.7731 16H43.2269C43.9096 16 44.5638 16.1371 45.1896 16.4112C45.8153 16.6856 46.3496 17.0903 46.7923 17.6253L49.8565 21.1967C50.2201 21.6394 50.5016 22.1259 50.701 22.6563C50.9003 23.1867 51 23.7455 51 24.3328V46.1084C51 47.4713 50.5255 48.6273 49.5764 49.5764C48.6273 50.5255 47.4713 51 46.1084 51H20.8916ZM22.2299 22.7117H44.7701L43.2011 20.8658H23.7989L22.2299 22.7117Z" fill="white"/>
</svg>
