<?xml version="1.0" encoding="UTF-8"?>
<svg version="1.1" xmlns="http://www.w3.org/2000/svg" width="114" height="94">
<path d="M0 0 C7.3354665 4.41371289 14.19183928 9.277847 20.98828125 14.47167969 C21.6225 14.95540039 22.25671875 15.43912109 22.91015625 15.9375 C23.51748093 16.41273605 24.1248056 16.88797211 24.75053406 17.37760925 C26.98807469 19.06164171 26.98807469 19.06164171 29.55256653 20.3986969 C36.47207518 24.39369838 36.47207518 24.39369838 37.87788391 28.67111206 C38.15738114 31.91687245 38.12610802 35.02298518 37.9765625 38.27734375 C37.96241302 39.4438295 37.94826355 40.61031525 37.9336853 41.81214905 C37.87788107 45.52325513 37.75246624 49.22823234 37.625 52.9375 C37.57482134 55.45889692 37.52919714 57.98038888 37.48828125 60.50195312 C37.38676345 66.67220474 37.19117546 72.8292809 37 79 C26.44 79 15.88 79 5 79 C5 70.42 5 61.84 5 53 C2.03 53 -0.94 53 -4 53 C-4 61.58 -4 70.16 -4 79 C-14.56 79 -25.12 79 -36 79 C-36.29967893 71.62841051 -36.55782545 64.27811983 -36.71411133 56.90527344 C-36.7792568 54.40226487 -36.86780657 51.89974675 -36.98071289 49.3984375 C-37.94519048 27.472938 -37.94519048 27.472938 -33.36254883 22.29736328 C-30.21230063 19.56897771 -26.73122005 17.82242768 -23 16 C-21.38407579 14.87947422 -19.78789194 13.72936763 -18.22265625 12.5390625 C-16.8379782 11.56480149 -15.4513295 10.59333384 -14.0625 9.625 C-13.36060547 9.13128906 -12.65871094 8.63757812 -11.93554688 8.12890625 C-7.9930328 5.36287673 -4.01873993 2.65400352 0 0 Z M0 14 C-2.66811219 15.87294933 -5.33421101 17.74874585 -8 19.625 C-8.74378906 20.14707031 -9.48757812 20.66914062 -10.25390625 21.20703125 C-11.7644835 22.27100305 -13.26251102 23.35299604 -14.74804688 24.45166016 C-17 26 -17 26 -19.33007812 27.09130859 C-21.99744295 28.49540281 -23.3224436 29.46892125 -25 32 C-25.99982529 38.1512689 -25.75280913 44.16805876 -25.5 50.375 C-25.45984413 52.08194827 -25.423347 53.78898679 -25.390625 55.49609375 C-25.30273436 59.66629792 -25.16486216 63.83215787 -25 68 C-22.03 68 -19.06 68 -16 68 C-16 59.42 -16 50.84 -16 42 C-5.44 42 5.12 42 16 42 C16 50.58 16 59.16 16 68 C19.3 68 22.6 68 26 68 C28.71322978 48.016289 28.71322978 48.016289 24.36230469 29.09960938 C20.37371898 24.88166601 15.64388475 22.31874463 10.34765625 20.05126953 C6.67010105 18.40447745 3.35782859 16.21327219 0 14 Z " fill="#185BFB" transform="translate(36,15)"/>
<path d="M0 0 C22.44 0 44.88 0 68 0 C68 31.02 68 62.04 68 94 C57.44 94 46.88 94 36 94 C36 90.37 36 86.74 36 83 C42.93 83 49.86 83 57 83 C57 59.24 57 35.48 57 11 C41.82 11 26.64 11 11 11 C11 13.31 11 15.62 11 18 C7.07320353 15.81005582 3.61616964 13.71212723 0 11 C0 7.37 0 3.74 0 0 Z " fill="#175BFD" transform="translate(46,0)"/>
<path d="M0 0 C3.96 0 7.92 0 12 0 C12 3.96 12 7.92 12 12 C3.50390625 12.09765625 3.50390625 12.09765625 1 12 C0 11 0 11 -0.09765625 8.49609375 C-0.06510417 5.6640625 -0.03255208 2.83203125 0 0 Z " fill="#195CEC" transform="translate(82,62)"/>
<path d="M0 0 C2.83203125 0.03255208 5.6640625 0.06510417 8.49609375 0.09765625 C8.49609375 4.05765625 8.49609375 8.01765625 8.49609375 12.09765625 C4.53609375 12.09765625 0.57609375 12.09765625 -3.50390625 12.09765625 C-3.6015625 3.6015625 -3.6015625 3.6015625 -3.50390625 1.09765625 C-2.50390625 0.09765625 -2.50390625 0.09765625 0 0 Z " fill="#175CF8" transform="translate(85.50390625,40.90234375)"/>
<path d="M0 0 C0.9075 0.00257812 1.815 0.00515625 2.75 0.0078125 C4.11125 0.00394531 4.11125 0.00394531 5.5 0 C7.75 0.1328125 7.75 0.1328125 8.75 1.1328125 C8.89310287 4.8019702 8.79221662 8.45996691 8.75 12.1328125 C4.79 12.1328125 0.83 12.1328125 -3.25 12.1328125 C-3.34765625 3.63671875 -3.34765625 3.63671875 -3.25 1.1328125 C-2.25 0.1328125 -2.25 0.1328125 0 0 Z " fill="#1D5BF0" transform="translate(85.25,19.8671875)"/>
<path d="M0 0 C0.33 0 0.66 0 1 0 C1 1.98 1 3.96 1 6 C3.97 6 6.94 6 10 6 C10 6.66 10 7.32 10 8 C9.34 8 8.68 8 8 8 C8 8.99 8 9.98 8 11 C5.36 11 2.72 11 0 11 C0 7.37 0 3.74 0 0 Z " fill="#175FEA" transform="translate(82,42)"/>
<path d="M0 0 C0.66 0 1.32 0 2 0 C2 0.99 2 1.98 2 3 C2.99 3.33 3.98 3.66 5 4 C3.02 4.99 3.02 4.99 1 6 C1 5.34 1 4.68 1 4 C0.01 4 -0.98 4 -2 4 C-2 3.34 -2 2.68 -2 2 C-1.34 2 -0.68 2 0 2 C0 1.34 0 0.68 0 0 Z " fill="#165FEC" transform="translate(14,38)"/>
</svg>
