<svg width="87" height="101" viewBox="0 0 87 101" fill="none" xmlns="http://www.w3.org/2000/svg">
<path d="M43.125 100.625V91.0417H76.6667V86.25H57.5V47.9167H76.6667V43.125C76.6667 33.8611 73.3924 25.9549 66.8438 19.4062C60.2951 12.8576 52.3889 9.58333 43.125 9.58333C33.8611 9.58333 25.9549 12.8576 19.4062 19.4062C12.8576 25.9549 9.58333 33.8611 9.58333 43.125V47.9167H28.75V86.25H9.58333C6.94792 86.25 4.69184 85.3116 2.8151 83.4349C0.938368 81.5582 0 79.3021 0 76.6667V43.125C0 37.2153 1.13802 31.645 3.41406 26.4141C5.6901 21.1832 8.78472 16.6111 12.6979 12.6979C16.6111 8.78472 21.1832 5.6901 26.4141 3.41406C31.645 1.13802 37.2153 0 43.125 0C49.0347 0 54.605 1.13802 59.8359 3.41406C65.0668 5.6901 69.6389 8.78472 73.5521 12.6979C77.4653 16.6111 80.5599 21.1832 82.8359 26.4141C85.112 31.645 86.25 37.2153 86.25 43.125V91.0417C86.25 93.6771 85.3116 95.9332 83.4349 97.8099C81.5582 99.6866 79.3021 100.625 76.6667 100.625H43.125ZM9.58333 76.6667H19.1667V57.5H9.58333V76.6667ZM67.0833 76.6667H76.6667V57.5H67.0833V76.6667Z" fill="white"/>
</svg>
