<svg width="103" height="100" viewBox="0 0 103 100" fill="none" xmlns="http://www.w3.org/2000/svg">
<path d="M50.2439 100C43.2935 100 36.7618 98.6875 30.6488 96.0625C24.5358 93.4375 19.2183 89.875 14.6963 85.375C10.1744 80.875 6.59451 75.5833 3.95671 69.5C1.3189 63.4167 0 56.9167 0 50C0 43.0833 1.3189 36.5833 3.95671 30.5C6.59451 24.4167 10.1744 19.125 14.6963 14.625C19.2183 10.125 24.5358 6.5625 30.6488 3.9375C36.7618 1.3125 43.2935 0 50.2439 0C62.4699 0 73.1677 3.8125 82.3372 11.4375C91.5067 19.0625 97.222 28.625 99.4829 40.125H89.1829C87.5919 34.0417 84.7238 28.6042 80.5787 23.8125C76.4335 19.0208 71.3463 15.4167 65.3171 13V15C65.3171 17.75 64.3331 20.1042 62.3652 22.0625C60.3974 24.0208 58.0317 25 55.2683 25H45.2195V35C45.2195 36.4167 44.738 37.6042 43.775 38.5625C42.812 39.5208 41.6187 40 40.1951 40H30.1463V50H40.1951V65H35.1707L11.0537 41C10.8024 42.5 10.5722 44 10.3628 45.5C10.1535 47 10.0488 48.5 10.0488 50C10.0488 60.9167 13.9008 70.2917 21.6049 78.125C29.3089 85.9583 38.8553 89.9167 50.2439 90V100ZM95.9659 97.5L79.8878 81.5C78.1293 82.5 76.2451 83.3333 74.2354 84C72.2256 84.6667 70.0902 85 67.8293 85C61.5488 85 56.2104 82.8125 51.814 78.4375C47.4177 74.0625 45.2195 68.75 45.2195 62.5C45.2195 56.25 47.4177 50.9375 51.814 46.5625C56.2104 42.1875 61.5488 40 67.8293 40C74.1098 40 79.4482 42.1875 83.8445 46.5625C88.2409 50.9375 90.439 56.25 90.439 62.5C90.439 64.75 90.1041 66.875 89.4341 68.875C88.7642 70.875 87.9268 72.75 86.922 74.5L103 90.5L95.9659 97.5ZM67.8293 75C71.3463 75 74.3191 73.7917 76.7476 71.375C79.176 68.9583 80.3902 66 80.3902 62.5C80.3902 59 79.176 56.0417 76.7476 53.625C74.3191 51.2083 71.3463 50 67.8293 50C64.3122 50 61.3394 51.2083 58.911 53.625C56.4825 56.0417 55.2683 59 55.2683 62.5C55.2683 66 56.4825 68.9583 58.911 71.375C61.3394 73.7917 64.3122 75 67.8293 75Z" fill="white"/>
</svg>
