<svg width="105" height="84" viewBox="0 0 105 84" fill="none" xmlns="http://www.w3.org/2000/svg">
<path d="M5.25 26.25V0H42V26.25H5.25ZM15.75 15.75H31.5V10.5H15.75V15.75ZM26.25 84C21.875 84 18.1562 82.4688 15.0937 79.4062C12.0312 76.3438 10.5 72.625 10.5 68.25H0V52.5C0 46.725 2.05625 41.7812 6.16875 37.6687C10.2812 33.5562 15.225 31.5 21 31.5H42V57.75H60.375L78.75 34.9125V21H63V10.5H78.75C81.6375 10.5 84.1094 11.5281 86.1656 13.5844C88.2219 15.6406 89.25 18.1125 89.25 21V38.5875L65.625 68.25H42C42 72.625 40.4688 76.3438 37.4062 79.4062C34.3438 82.4688 30.625 84 26.25 84ZM26.25 73.5C27.7375 73.5 28.9844 72.9969 29.9906 71.9906C30.9969 70.9844 31.5 69.7375 31.5 68.25H21C21 69.7375 21.5031 70.9844 22.5094 71.9906C23.5156 72.9969 24.7625 73.5 26.25 73.5ZM89.25 84C84.875 84 81.1562 82.4688 78.0938 79.4062C75.0312 76.3438 73.5 72.625 73.5 68.25C73.5 63.875 75.0312 60.1562 78.0938 57.0937C81.1562 54.0312 84.875 52.5 89.25 52.5C93.625 52.5 97.3437 54.0312 100.406 57.0937C103.469 60.1562 105 63.875 105 68.25C105 72.625 103.469 76.3438 100.406 79.4062C97.3437 82.4688 93.625 84 89.25 84ZM89.25 73.5C90.7375 73.5 91.9844 72.9969 92.9906 71.9906C93.9969 70.9844 94.5 69.7375 94.5 68.25C94.5 66.7625 93.9969 65.5156 92.9906 64.5094C91.9844 63.5031 90.7375 63 89.25 63C87.7625 63 86.5156 63.5031 85.5094 64.5094C84.5031 65.5156 84 66.7625 84 68.25C84 69.7375 84.5031 70.9844 85.5094 71.9906C86.5156 72.9969 87.7625 73.5 89.25 73.5ZM10.5 57.75H31.5V42H21C18.1125 42 15.6406 43.0281 13.5844 45.0844C11.5281 47.1406 10.5 49.6125 10.5 52.5V57.75Z" fill="white"/>
</svg>
