<svg width="85" height="93" viewBox="0 0 85 93" fill="none" xmlns="http://www.w3.org/2000/svg">
<path d="M4.71435 93H1.02794V83.7H4.71435C8.40075 83.7 11.9144 83.2931 15.2552 82.4794C18.596 81.6656 22.34 80.3675 26.4872 78.585C29.4056 80.0575 31.9592 81.2781 34.148 82.2469C36.3368 83.2156 39.1208 83.7 42.5 83.7C45.8792 83.7 48.6632 83.2156 50.852 82.2469C53.0408 81.2781 55.5944 80.0575 58.5128 78.585C62.5832 80.3675 66.3272 81.6656 69.7448 82.4794C73.1624 83.2931 76.7145 83.7 80.4009 83.7H83.9721V93H80.4009C76.6376 93 72.9705 92.6513 69.3992 91.9538C65.828 91.2562 62.3144 90.21 58.8584 88.815C55.7864 90.2875 52.9832 91.3337 50.4488 91.9538C47.9144 92.5738 45.2648 92.8838 42.5 92.8838C39.7352 92.8838 37.1048 92.5738 34.6088 91.9538C32.1128 91.3337 29.3288 90.2875 26.2568 88.815C22.8008 90.21 19.2872 91.2562 15.716 91.9538C12.1448 92.6513 8.47755 93 4.71435 93ZM42.5 74.4C37.892 74.4 33.86 72.85 30.404 69.75L25.22 65.1C23.1464 67.1925 20.8232 68.975 18.2504 70.4475C15.6776 71.92 12.932 72.9662 10.0136 73.5863L0.221539 41.85C-0.162462 40.5325 -0.0472616 39.3312 0.567139 38.2463C1.18154 37.1613 2.14154 36.425 3.44714 36.0375L10.244 34.1775V18.6C10.244 16.0425 11.1464 13.8531 12.9512 12.0319C14.756 10.2106 16.9256 9.3 19.46 9.3H30.98V0H54.02V9.3H65.54C68.0744 9.3 70.244 10.2106 72.0488 12.0319C73.8537 13.8531 74.7561 16.0425 74.7561 18.6V34.1775L81.5529 36.0375C82.8585 36.425 83.8185 37.1613 84.4329 38.2463C85.0473 39.3312 85.1625 40.5325 84.7785 41.85L74.9865 73.5863C72.068 72.9662 69.3224 71.92 66.7496 70.4475C64.1768 68.975 61.8536 67.1925 59.78 65.1L54.596 69.75C51.14 72.85 47.108 74.4 42.5 74.4ZM42.7304 65.1C45.1112 65.1 47.2232 64.3056 49.0664 62.7169C50.9096 61.1281 52.5992 59.4425 54.1352 57.66L59.4344 51.4987L64.1576 56.3813C65.0024 57.2337 65.8664 58.0281 66.7496 58.7644C67.6328 59.5006 68.4968 60.2563 69.3416 61.0312L74.6409 43.71L42.5 35.2238L10.4744 43.71L15.7736 61.0312C16.6184 60.2563 17.4824 59.5006 18.3656 58.7644C19.2488 58.0281 20.1128 57.2337 20.9576 56.3813L25.6808 51.4987L30.98 57.66C32.516 59.52 34.244 61.225 36.164 62.775C38.084 64.325 40.2728 65.1 42.7304 65.1ZM19.46 31.7362L42.5 25.575L65.54 31.7362V18.6H19.46V31.7362Z" fill="white"/>
</svg>
