<?xml version="1.0" encoding="UTF-8"?>
<svg version="1.1" xmlns="http://www.w3.org/2000/svg" width="115" height="82">
<path d="M0 0 C1.26092972 0.00037766 2.52185944 0.00075531 3.82099915 0.00114441 C5.18690998 0.02667371 6.55281062 0.05275362 7.91870117 0.0793457 C9.32401774 0.08867836 10.72935064 0.09579234 12.13468933 0.1007843 C15.82255451 0.11981923 19.50942543 0.16888725 23.19689941 0.2243042 C26.9640559 0.27557391 30.73137403 0.29831466 34.4987793 0.32348633 C41.88274729 0.37701196 49.26569228 0.46491625 56.64916992 0.56762695 C55.32916992 7.16762695 54.00916992 13.76762695 52.64916992 20.56762695 C54.83541992 20.17575195 57.02166992 19.78387695 59.27416992 19.38012695 C63.47915979 19.04600502 66.44906314 19.55896377 69.73364258 22.31958008 C71.86094678 24.66038268 73.74036893 27.06208137 75.58666992 29.63012695 C76.19526855 30.47615479 76.80386719 31.32218262 77.4309082 32.19384766 C82.57139866 39.93291793 82.05298044 45.40468168 80.27612305 54.2434082 C80.08985352 55.13415039 79.90358398 56.02489258 79.71166992 56.94262695 C79.43806641 58.31354492 79.43806641 58.31354492 79.15893555 59.7121582 C77.7863227 66.43047418 77.7863227 66.43047418 76.64916992 67.56762695 C74.96308026 67.63968207 73.27416333 67.65148763 71.58666992 67.63012695 C70.20801758 67.6165918 70.20801758 67.6165918 68.80151367 67.6027832 C67.73610352 67.58538086 67.73610352 67.58538086 66.64916992 67.56762695 C66.60791992 68.41325195 66.56666992 69.25887695 66.52416992 70.13012695 C65.35489941 74.72368968 63.09803012 77.38729115 59.64916992 80.56762695 C55.71192881 82.88958966 52.1652759 82.9637766 47.64916992 82.56762695 C42.99616423 80.79948479 39.75221275 78.46859508 36.64916992 74.56762695 C36.15416992 71.10262695 36.15416992 71.10262695 35.64916992 67.56762695 C29.04916992 67.56762695 22.44916992 67.56762695 15.64916992 67.56762695 C15.31916992 69.87762695 14.98916992 72.18762695 14.64916992 74.56762695 C11.54612709 78.46859508 8.30217562 80.79948479 3.64916992 82.56762695 C-1.59685734 83.1297013 -4.92811727 82.45200487 -9.35083008 79.56762695 C-13.19543067 75.72302636 -14.96098656 73.02543623 -15.35083008 67.56762695 C-19.31083008 67.56762695 -23.27083008 67.56762695 -27.35083008 67.56762695 C-28.65615556 64.95697599 -28.13365543 63.81214885 -27.47583008 61.00512695 C-27.2927832 60.19946289 -27.10973633 59.39379883 -26.92114258 58.5637207 C-26.35083008 56.56762695 -26.35083008 56.56762695 -25.35083008 55.56762695 C-22.25755986 55.36392379 -19.17206379 55.22152343 -16.07348633 55.13793945 C-11.63060958 54.92845214 -9.01104406 54.02465641 -5.35083008 51.56762695 C0.86093691 50.16496989 4.04642538 50.5947421 9.64916992 53.56762695 C9.97916992 53.89762695 10.30916992 54.22762695 10.64916992 54.56762695 C12.2817375 54.72477349 13.9205233 54.81848109 15.55932617 54.8840332 C16.54868164 54.92592773 17.53803711 54.96782227 18.55737305 55.01098633 C19.59829102 55.05030273 20.63920898 55.08961914 21.71166992 55.13012695 C23.27884766 55.19490234 23.27884766 55.19490234 24.87768555 55.26098633 C27.46803876 55.3674392 30.05849178 55.46945455 32.64916992 55.56762695 C32.78452148 54.82125977 32.91987305 54.07489258 33.05932617 53.3059082 C35.73176487 39.27160437 39.26009428 25.44365364 42.64916992 11.56762695 C24.49916992 11.56762695 6.34916992 11.56762695 -12.35083008 11.56762695 C-11.00010854 3.4632977 -8.41744006 -0.08434309 0 0 Z M49.64916992 31.56762695 C49.14445796 33.33712307 48.64556307 35.10827918 48.14916992 36.88012695 C47.87073242 37.86625977 47.59229492 38.85239258 47.30541992 39.8684082 C46.53104796 42.59049899 46.53104796 42.59049899 46.64916992 45.56762695 C54.23916992 45.56762695 61.82916992 45.56762695 69.64916992 45.56762695 C69.64916992 40.74209266 67.01169791 37.71739542 64.22729492 33.91137695 C61.04120276 31.01492954 59.3996332 30.8398382 55.14916992 30.88012695 C53.30990199 31.05540372 51.47212235 31.2668398 49.64916992 31.56762695 Z M-2.60083008 63.00512695 C-3.46708008 63.77856445 -3.46708008 63.77856445 -4.35083008 64.56762695 C-3.77630262 68.49838339 -3.77630262 68.49838339 -1.35083008 71.56762695 C1.95600458 71.27779427 1.95600458 71.27779427 4.64916992 69.56762695 C4.36186937 67.22817959 4.02980213 64.89371265 3.64916992 62.56762695 C0.79860389 61.44776173 0.05793664 61.30647044 -2.60083008 63.00512695 Z M50.64916992 61.56762695 C49.32916992 62.55762695 48.00916992 63.54762695 46.64916992 64.56762695 C46.97916992 66.54762695 47.30916992 68.52762695 47.64916992 70.56762695 C49.99450943 71.33718831 49.99450943 71.33718831 52.64916992 71.56762695 C54.64916992 70.56762695 54.64916992 70.56762695 55.64916992 68.56762695 C55.72941651 65.96872913 55.72941651 65.96872913 54.64916992 63.56762695 C52.68158719 62.20742544 52.68158719 62.20742544 50.64916992 61.56762695 Z " fill="#175BFC" transform="translate(33.350830078125,-0.567626953125)"/>
<path d="M0 0 C11.22 0 22.44 0 34 0 C32 10 32 10 31 11 C28.47905924 11.08847743 25.98569107 11.11527301 23.46484375 11.09765625 C22.33496788 11.09553383 22.33496788 11.09553383 21.18226624 11.09336853 C18.7673044 11.08775376 16.35243399 11.07519883 13.9375 11.0625 C12.30403779 11.0574869 10.67057414 11.05292366 9.03710938 11.04882812 C5.02470415 11.03777954 1.01236759 11.02050506 -3 11 C-2.01 7.37 -1.02 3.74 0 0 Z " fill="#195BF7" transform="translate(13,18)"/>
<path d="M0 0 C1.20970459 0.00523682 2.41940918 0.01047363 3.66577148 0.01586914 C4.97094727 0.0190918 6.27612305 0.02231445 7.62084961 0.02563477 C9.00952213 0.03399138 10.39819401 0.04245634 11.78686523 0.05102539 C13.17944179 0.05603873 14.57202005 0.06060193 15.96459961 0.06469727 C19.38456394 0.07653105 22.80444367 0.09301659 26.22436523 0.11352539 C25.23436523 3.74352539 24.24436523 7.37352539 23.22436523 11.11352539 C13.65436523 11.11352539 4.08436523 11.11352539 -5.77563477 11.11352539 C-3.58223285 0.14651581 -3.58223285 0.14651581 0 0 Z " fill="#195BF8" transform="translate(5.775634765625,36.886474609375)"/>
</svg>
