<?xml version="1.0" encoding="UTF-8"?>
<svg version="1.1" xmlns="http://www.w3.org/2000/svg" width="87" height="96">
<path d="M0 0 C4.88825084 2.1907161 9.42429238 4.86196728 14 7.625 C15.23075846 8.34678112 16.46252471 9.06684667 17.6953125 9.78515625 C34.82752375 19.82752375 34.82752375 19.82752375 39 24 C39.26742554 25.99116516 39.26742554 25.99116516 39.29052734 28.4621582 C39.30328705 29.38684402 39.31604675 30.31152985 39.32919312 31.26423645 C39.33141876 32.26629623 39.33364441 33.26835602 39.3359375 34.30078125 C39.3459227 35.84357002 39.3459227 35.84357002 39.35610962 37.41752625 C39.36624932 39.59726164 39.37092623 41.77702816 39.37060547 43.95678711 C39.37496893 47.28877201 39.41124869 50.61942239 39.44921875 53.95117188 C39.45508857 56.0677038 39.45905686 58.18424202 39.4609375 60.30078125 C39.47530853 61.29676834 39.48967957 62.29275543 39.50448608 63.31892395 C39.47669308 67.53825236 39.429207 70.24583976 37.31542969 73.95996094 C34.81974908 76.15881239 32.41670575 77.75375147 29.4921875 79.33984375 C28.42226562 79.92830078 27.35234375 80.51675781 26.25 81.12304688 C25.13625 81.72181641 24.0225 82.32058594 22.875 82.9375 C20.68409883 84.13265472 18.49398473 85.32925346 16.3046875 86.52734375 C14.70318848 87.39141846 14.70318848 87.39141846 13.06933594 88.27294922 C10.20636488 89.88388282 7.49934107 91.63475483 4.7578125 93.44140625 C0.95237174 95.68820729 -2.01169331 97.01973053 -6.47265625 96.68457031 C-12.47302161 95.05927815 -17.72015369 91.56322559 -23 88.375 C-24.23075846 87.65321888 -25.46252471 86.93315333 -26.6953125 86.21484375 C-43.82752375 76.17247625 -43.82752375 76.17247625 -48 72 C-48.26742554 70.00883484 -48.26742554 70.00883484 -48.29052734 67.5378418 C-48.30328705 66.61315598 -48.31604675 65.68847015 -48.32919312 64.73576355 C-48.33141876 63.73370377 -48.33364441 62.73164398 -48.3359375 61.69921875 C-48.3425943 60.6706929 -48.3492511 59.64216705 -48.35610962 58.58247375 C-48.36624932 56.40273836 -48.37092623 54.22297184 -48.37060547 52.04321289 C-48.37496893 48.71122799 -48.41124869 45.38057761 -48.44921875 42.04882812 C-48.45508857 39.9322962 -48.45905686 37.81575798 -48.4609375 35.69921875 C-48.47530853 34.70323166 -48.48967957 33.70724457 -48.50448608 32.68107605 C-48.47669308 28.46174764 -48.429207 25.75416024 -46.31542969 22.04003906 C-43.81974908 19.84118761 -41.41670575 18.24624853 -38.4921875 16.66015625 C-37.42226563 16.07169922 -36.35234375 15.48324219 -35.25 14.87695312 C-34.13625 14.27818359 -33.0225 13.67941406 -31.875 13.0625 C-29.68409883 11.86734528 -27.49398473 10.67074654 -25.3046875 9.47265625 C-23.70318848 8.60858154 -23.70318848 8.60858154 -22.06933594 7.72705078 C-19.20636488 6.11611718 -16.49934107 4.36524517 -13.7578125 2.55859375 C-8.98223169 -0.26099552 -5.45692975 -1.47809419 0 0 Z M-8.5625 12 C-9.696875 12.66 -10.83125 13.32 -12 14 C-12 14.66 -12 15.32 -12 16 C-8.47656424 17.97608873 -4.95279373 19.95157905 -1.42871094 21.92651367 C-0.2297253 22.59854934 0.9691685 23.27074892 2.16796875 23.94311523 C3.89038362 24.90912192 5.61315558 25.87449181 7.3359375 26.83984375 C8.37282715 27.42113037 9.4097168 28.00241699 10.47802734 28.60131836 C11.97017299 29.42885974 13.47387461 30.23693731 15 31 C17.4750171 29.88568235 19.67883419 28.41849022 22 27 C22 26.34 22 25.68 22 25 C18.3170954 22.86102544 14.6325842 20.72485432 10.9465332 18.59130859 C9.6918514 17.86454591 8.43761819 17.13700823 7.18383789 16.40869141 C5.38544171 15.36418631 3.58547009 14.32244544 1.78515625 13.28125 C0.70113525 12.65283203 -0.38288574 12.02441406 -1.49975586 11.37695312 C-4.98357696 9.45831715 -5.25153726 10.07362168 -8.5625 12 Z M-27.5625 23 C-28.696875 23.66 -29.83125 24.32 -31 25 C-29.29697854 30.10906437 -24.19576556 31.84460111 -19.68286133 34.42749023 C-17.95153635 35.42937741 -16.24598008 36.4753676 -14.54101562 37.52148438 C-8.83187643 41.10734117 -8.83187643 41.10734117 -2.40673828 41.51611328 C0.07563302 40.36113882 0.07563302 40.36113882 3 38 C3 37.34 3 36.68 3 36 C-0.6829046 33.86102544 -4.3674158 31.72485432 -8.0534668 29.59130859 C-9.3081486 28.86454591 -10.56238181 28.13700823 -11.81616211 27.40869141 C-13.61455829 26.36418631 -15.41452991 25.32244544 -17.21484375 24.28125 C-18.29886475 23.65283203 -19.38288574 23.02441406 -20.49975586 22.37695312 C-23.98357696 20.45831715 -24.25153726 21.07362168 -27.5625 23 Z M-38 35 C-38 45.56 -38 56.12 -38 67 C-31.626875 70.7125 -31.626875 70.7125 -25.125 74.5 C-23.11623779 75.6746582 -23.11623779 75.6746582 -21.06689453 76.87304688 C-20.01614746 77.48212891 -18.96540039 78.09121094 -17.8828125 78.71875 C-16.26463623 79.66137695 -16.26463623 79.66137695 -14.61376953 80.62304688 C-12.19746762 82.15536233 -12.19746762 82.15536233 -10 82 C-9.67616551 77.73228296 -9.44180319 73.47119969 -9.28588867 69.19482422 C-9.22088151 67.74466456 -9.13241639 66.29534553 -9.01928711 64.84814453 C-8.64694462 59.95883276 -8.60860235 55.7366174 -10 51 C-13.84979988 47.22527368 -18.11622587 45.18840828 -23 43 C-24.4444511 42.1772397 -25.87960582 41.33749712 -27.296875 40.46875 C-28.43640625 39.8190625 -29.5759375 39.169375 -30.75 38.5 C-31.35070312 38.15453125 -31.95140625 37.8090625 -32.5703125 37.453125 C-35.129953 35.73495132 -35.129953 35.73495132 -38 35 Z M22.25 38.24609375 C21.67668945 38.57666275 21.10337891 38.90723175 20.51269531 39.24781799 C19.29822561 39.94875568 18.08437565 40.65076807 16.87109375 41.35375977 C15.00943492 42.43203528 13.14550925 43.50630618 11.28125 44.58007812 C5.82785198 47.38170614 5.82785198 47.38170614 1 51 C0.91209025 53.29151417 0.89305962 55.58572524 0.90234375 57.87890625 C0.9037587 58.5655687 0.90517365 59.25223114 0.90663147 59.95970154 C0.91224521 62.16067801 0.92479993 64.36155409 0.9375 66.5625 C0.94251324 68.05143083 0.94707645 69.54036324 0.95117188 71.02929688 C0.96221907 74.68623075 0.97949287 78.34310558 1 82 C4.70897259 80.60582632 8.07838312 78.92181521 11.51953125 76.9609375 C12.44096924 76.43806152 13.36240723 75.91518555 14.31176758 75.37646484 C15.46700928 74.71598145 16.62225098 74.05549805 17.8125 73.375 C21.504375 71.27125 25.19625 69.1675 29 67 C29 56.44 29 45.88 29 35 C26.7427923 35 24.09624218 37.18039131 22.25 38.24609375 Z " fill="#175BFB" transform="translate(48,0)"/>
</svg>
