<?xml version="1.0" encoding="UTF-8"?>
<svg version="1.1" xmlns="http://www.w3.org/2000/svg" width="96" height="62">
<path d="M0 0 C1.21734077 -0.0098568 1.21734077 -0.0098568 2.45927429 -0.01991272 C5.15147997 -0.03966236 7.84362983 -0.05131192 10.53588867 -0.0612793 C11.45454901 -0.06535482 12.37320934 -0.06943035 13.31970787 -0.07362938 C18.1818863 -0.0944971 23.04403645 -0.10879584 27.90625 -0.11816406 C32.93023468 -0.12923078 37.95377672 -0.16363164 42.97760487 -0.20333576 C46.83893156 -0.22947204 50.70015231 -0.23785323 54.56155968 -0.24144554 C56.41353025 -0.24631914 58.26549585 -0.25795511 60.11738014 -0.27648354 C62.71012132 -0.30081203 65.30171105 -0.29992172 67.89453125 -0.29296875 C68.65887482 -0.30577881 69.42321838 -0.31858887 70.21072388 -0.33178711 C73.90399027 -0.2957061 75.95947734 0.05970559 79.09428406 2.08137512 C82.06448244 5.12202209 82.271478 6.77740693 82.31835938 10.91455078 C82.33761223 12.3916729 82.33761223 12.3916729 82.35725403 13.89863586 C82.36464096 14.96631699 82.37202789 16.03399811 82.37963867 17.1340332 C82.38771042 18.22914719 82.39578217 19.32426117 82.40409851 20.45256042 C82.41794646 22.77353325 82.42866542 25.09452651 82.43652344 27.41552734 C82.45373697 30.96466678 82.49761802 34.51287511 82.54174805 38.06176758 C82.55187467 40.31501593 82.56039087 42.5682722 82.56713867 44.8215332 C82.58464676 45.88314163 82.60215485 46.94475006 82.62019348 48.03852844 C82.59847123 55.42046657 82.59847123 55.42046657 80.23974609 59.32421875 C76.44009663 62.67913902 73.13592538 62.33706525 68.28271484 62.35400391 C67.06537407 62.3638607 67.06537407 62.3638607 65.82344055 62.37391663 C63.13123487 62.39366626 60.43908501 62.40531582 57.74682617 62.4152832 C56.82816584 62.41935873 55.9095055 62.42343426 54.96300697 62.42763329 C50.10082854 62.448501 45.23867839 62.46279975 40.37646484 62.47216797 C35.35248016 62.48323469 30.32893813 62.51763554 25.30510998 62.55733967 C21.44378329 62.58347595 17.58256254 62.59185714 13.72115517 62.59544945 C11.8691846 62.60032305 10.017219 62.61195902 8.1653347 62.63048744 C5.57259352 62.65481594 2.98100379 62.65392563 0.38818359 62.64697266 C-0.37615997 62.65978271 -1.14050354 62.67259277 -1.92800903 62.68579102 C-5.62127543 62.64971001 -7.6767625 62.29429831 -10.81156921 60.27262878 C-13.7817676 57.23198181 -13.98876315 55.57659698 -14.03564453 51.43945312 C-14.05489738 49.96233101 -14.05489738 49.96233101 -14.07453918 48.45536804 C-14.08192612 47.38768692 -14.08931305 46.3200058 -14.09692383 45.2199707 C-14.10499557 44.12485672 -14.11306732 43.02974274 -14.12138367 41.90144348 C-14.13523162 39.58047065 -14.14595058 37.2594774 -14.15380859 34.93847656 C-14.17102213 31.38933712 -14.21490318 27.84112879 -14.2590332 24.29223633 C-14.26915982 22.03898798 -14.27767602 19.7857317 -14.28442383 17.5324707 C-14.30193192 16.47086227 -14.31944 15.40925385 -14.33747864 14.31547546 C-14.31575639 6.93353734 -14.31575639 6.93353734 -11.95703125 3.02978516 C-8.15738179 -0.32513512 -4.85321053 0.01693866 0 0 Z M5.27490234 15.10083008 C4.9874968 15.81307739 4.70009125 16.52532471 4.40397644 17.25915527 C3.14135742 19.17700195 3.14135742 19.17700195 -2.85864258 21.17700195 C-2.85864258 27.77700195 -2.85864258 34.37700195 -2.85864258 41.17700195 C-0.54864258 42.16700195 1.76135742 43.15700195 4.14135742 44.17700195 C6.01635742 46.73950195 6.01635742 46.73950195 7.14135742 49.17700195 C7.47135742 49.83700195 7.80135742 50.49700195 8.14135742 51.17700195 C15.45492128 51.37989611 22.76775978 51.5199605 30.08349609 51.61645508 C32.57172768 51.65667941 35.05977028 51.71126806 37.54736328 51.78051758 C41.12474132 51.87760866 44.69962087 51.92294037 48.27807617 51.95825195 C49.94552132 52.02018738 49.94552132 52.02018738 51.64665222 52.08337402 C54.68293227 52.08513694 57.22331569 52.02213679 60.14135742 51.17700195 C61.93383224 49.24165283 62.89405906 47.53507716 63.8787384 45.09484863 C65.14135742 43.17700195 65.14135742 43.17700195 71.14135742 41.17700195 C71.14135742 34.57700195 71.14135742 27.97700195 71.14135742 21.17700195 C68.83135742 20.18700195 66.52135742 19.19700195 64.14135742 18.17700195 C62.26635742 15.61450195 62.26635742 15.61450195 61.14135742 13.17700195 C60.64635742 12.18700195 60.64635742 12.18700195 60.14135742 11.17700195 C52.82779357 10.97410779 45.51495507 10.8340434 38.19921875 10.73754883 C35.71098716 10.6973245 33.22294456 10.64273585 30.73535156 10.57348633 C27.15797352 10.47639525 23.58309398 10.43106354 20.00463867 10.39575195 C18.89300858 10.35446167 17.78137848 10.31317139 16.63606262 10.27062988 C9.66067589 10.19873641 9.66067589 10.19873641 5.27490234 15.10083008 Z " fill="#175BFD" transform="translate(13.858642578125,-0.177001953125)"/>
<path d="M0 0 C3.87169696 2.2102207 5.95282191 4.18158446 7.75 8.375 C8.48334651 13.93621107 8.47446491 18.68458187 6.25 23.875 C2.11485121 28.01014879 -2.32836513 30.52529715 -8.25 30.875 C-14.17163487 30.52529715 -18.61485121 28.01014879 -22.75 23.875 C-24.97446491 18.68458187 -24.98334651 13.93621107 -24.25 8.375 C-22.13379543 3.43718933 -19.18338299 1.1826762 -14.390625 -0.9296875 C-9.20043002 -2.61555375 -4.96975736 -2.19037454 0 0 Z " fill="#185BFB" transform="translate(56.25,16.625)"/>
</svg>
