<svg width="128" height="84" viewBox="0 0 128 84" fill="none" xmlns="http://www.w3.org/2000/svg">
<path d="M32 82.6875C22.7556 80.325 15.1111 75.425 9.06667 67.9875C3.02222 60.55 0 51.8875 0 42C0 32.1125 3.02222 23.45 9.06667 16.0125C15.1111 8.575 22.7556 3.675 32 1.3125V12.3375C25.6889 14.4375 20.5556 18.2 16.6 23.625C12.6444 29.05 10.6667 35.175 10.6667 42C10.6667 48.825 12.6444 54.95 16.6 60.375C20.5556 65.8 25.6889 69.5625 32 71.6625V82.6875ZM74.6667 84C62.8444 84 52.7778 79.9094 44.4667 71.7281C36.1556 63.5469 32 53.6375 32 42C32 30.3625 36.1556 20.4531 44.4667 12.2719C52.7778 4.09062 62.8444 0 74.6667 0C80.5333 0 86.0444 1.09375 91.2 3.28125C96.3556 5.46875 100.889 8.4875 104.8 12.3375L97.3333 19.6875C94.4 16.8 91 14.5469 87.1333 12.9281C83.2667 11.3094 79.1111 10.5 74.6667 10.5C65.7778 10.5 58.2222 13.5625 52 19.6875C45.7778 25.8125 42.6667 33.25 42.6667 42C42.6667 50.75 45.7778 58.1875 52 64.3125C58.2222 70.4375 65.7778 73.5 74.6667 73.5C79.1111 73.5 83.2667 72.6906 87.1333 71.0719C91 69.4531 94.4 67.2 97.3333 64.3125L104.8 71.6625C100.889 75.5125 96.3556 78.5312 91.2 80.7188C86.0444 82.9062 80.5333 84 74.6667 84ZM106.667 63L99.2 55.65L107.733 47.25H69.3333V36.75H107.733L99.2 28.35L106.667 21L128 42L106.667 63Z" fill="white"/>
</svg>
