<svg width="220" height="50" viewBox="0 0 220 50" fill="none" xmlns="http://www.w3.org/2000/svg">
<g clip-path="url(#clip0_545_6424)">
<path d="M127.596 19.6809H118.936V20.6011C121.645 20.6011 122.08 21.1827 122.08 24.6237V30.827C122.08 34.2676 121.645 34.8976 118.936 34.8976C116.856 34.6071 115.453 33.4922 113.517 31.3599L111.292 28.9371C114.292 28.4033 115.888 26.5139 115.888 24.3812C115.888 21.7164 113.614 19.6809 109.357 19.6809H100.842V20.6011C103.551 20.6011 103.986 21.1827 103.986 24.6237V30.827C103.986 34.2676 103.551 34.8976 100.842 34.8976V35.8183H110.469V34.8976C107.76 34.8976 107.325 34.2676 107.325 30.827V29.0828H108.147L113.517 35.8183H127.596C134.514 35.8183 137.514 32.1357 137.514 27.7251C137.514 23.3153 134.515 19.6809 127.596 19.6809ZM107.325 27.5794V21.1349H109.309C111.485 21.1349 112.453 22.6371 112.453 24.3817C112.453 26.0781 111.485 27.5798 109.309 27.5798L107.325 27.5794ZM127.742 34.3161H127.403C125.661 34.3161 125.419 33.8803 125.419 31.6509V21.1349C125.419 21.1349 127.548 21.1349 127.742 21.1349C132.773 21.1349 133.692 24.8175 133.692 27.677C133.692 30.6327 132.773 34.3161 127.742 34.3161Z" fill="#175CFF"/>
<path d="M73.8942 29.3734L77.2325 19.4867C78.2005 16.6276 77.765 15.8041 74.6687 15.8041V14.8345H83.7641V15.8041C80.7163 15.8041 79.9907 16.5309 78.7811 20.0686L73.2652 36.6422H72.6366L67.7012 21.4736L62.6702 36.6422H62.0411L56.6711 20.0686C55.51 16.5309 54.7359 15.8041 51.9297 15.8041V14.8345H62.6702V15.8041C59.8155 15.8041 59.041 16.4823 60.0575 19.4867L63.2988 29.3734L68.1852 14.8345H69.1048L73.8942 29.3734Z" fill="#175CFF"/>
<path d="M90.3439 36.4478C85.0223 36.4478 80.668 32.5228 80.668 27.7245C80.668 22.9756 85.0227 19.0498 90.3439 19.0498C95.6659 19.0498 100.02 22.9756 100.02 27.7245C100.02 32.5228 95.6659 36.4478 90.3439 36.4478ZM90.3439 20.5532C85.8934 20.5532 84.3448 24.5749 84.3448 27.7249C84.3448 30.9239 85.8934 34.8974 90.3439 34.8974C94.8437 34.8974 96.3919 30.9239 96.3919 27.7249C96.3919 24.5749 94.8437 20.5532 90.3439 20.5532Z" fill="#175CFF"/>
<path d="M149.464 34.849V35.8182H138.385V34.849C141.627 34.849 142.207 34.0255 142.207 29.1786V21.4254C142.207 16.5786 141.627 15.8036 138.385 15.8036V14.834H148.399C153.382 14.834 156.141 17.4025 156.141 20.8439C156.141 24.1877 153.382 26.8044 148.399 26.8044H145.641V29.1782C145.641 34.0255 146.222 34.849 149.464 34.849ZM148.399 16.5786H145.641V25.0113H148.399C151.109 25.0113 152.367 23.1214 152.367 20.8439C152.367 18.5178 151.109 16.5786 148.399 16.5786Z" fill="#175CFF"/>
<path d="M189.376 31.2632L189.134 32.1353C188.699 33.7346 188.166 34.3161 184.731 34.3161H184.053C181.538 34.3161 181.102 33.7346 181.102 30.294V28.065C184.876 28.065 185.167 28.4038 185.167 30.9241H186.086V23.703H185.167C185.167 26.2229 184.876 26.5621 181.102 26.5621V21.1349H183.763C187.198 21.1349 187.73 21.7164 188.166 23.3157L188.408 24.236H189.182L188.844 19.6809H174.619V20.6011C177.328 20.6011 177.764 21.1827 177.764 24.6237V30.827C177.764 33.9746 177.394 34.7675 175.258 34.8805C173.228 34.5699 171.834 33.4608 169.927 31.3599L167.702 28.9371C170.701 28.4033 172.298 26.5139 172.298 24.3812C172.298 21.7164 170.024 19.6809 165.767 19.6809H157.252V20.6011C159.961 20.6011 160.396 21.1827 160.396 24.6237V30.827C160.396 34.2676 159.961 34.8976 157.252 34.8976V35.8183H166.88V34.8976C164.171 34.8976 163.735 34.2676 163.735 30.827V29.0828H164.558L169.928 35.8183H189.812L190.102 31.2636L189.376 31.2632ZM163.735 27.5794V21.1349H165.718C167.895 21.1349 168.863 22.6371 168.863 24.3817C168.863 26.0781 167.895 27.5798 165.718 27.5798L163.735 27.5794Z" fill="#175CFF"/>
<path d="M199.198 36.4478C197.263 36.4478 195.569 35.4305 194.844 34.8C194.602 35.0428 194.166 35.7696 194.07 36.4478H193.15V29.7609H194.118C194.505 32.9591 196.73 34.849 199.585 34.849C201.133 34.849 202.391 33.9769 202.391 32.5233C202.391 31.2635 201.279 30.2939 199.295 29.3733L196.537 28.0649C194.602 27.1435 193.15 25.5442 193.15 23.4123C193.15 21.0862 195.328 19.0997 198.327 19.0997C199.924 19.0997 201.278 19.6812 202.101 20.3594C202.343 20.1656 202.585 19.6322 202.73 19.0503H203.649V24.7692H202.633C202.294 22.4913 201.037 20.6014 198.473 20.6014C197.118 20.6014 195.86 21.3768 195.86 22.5888C195.86 23.8486 196.876 24.5268 199.198 25.5931L201.859 26.9015C204.181 28.016 205.1 29.8099 205.1 31.2635C205.1 34.316 202.439 36.4478 199.198 36.4478Z" fill="#175CFF"/>
<path d="M214.099 36.4478C212.163 36.4478 210.47 35.4305 209.744 34.8C209.502 35.0428 209.067 35.7696 208.971 36.4478H208.051V29.7609H209.019C209.406 32.9591 211.631 34.849 214.486 34.849C216.034 34.849 217.292 33.9769 217.292 32.5233C217.292 31.2635 216.179 30.2939 214.195 29.3733L211.438 28.0649C209.502 27.1435 208.051 25.5442 208.051 23.4123C208.051 21.0862 210.228 19.0997 213.228 19.0997C214.824 19.0997 216.179 19.6812 217.002 20.3594C217.243 20.1656 217.485 19.6322 217.63 19.0503H218.549V24.7692H217.534C217.195 22.4913 215.937 20.6014 213.373 20.6014C212.019 20.6014 210.76 21.3768 210.76 22.5888C210.76 23.8486 211.776 24.5268 214.099 25.5931L216.759 26.9015C219.082 28.016 220 29.8099 220 31.2635C220 34.316 217.34 36.4478 214.099 36.4478Z" fill="#175CFF"/>
<path d="M3.54688 24.9994C3.54688 33.4884 8.47202 40.8246 15.6139 44.3011L5.40058 16.2712C4.21258 18.9385 3.54688 21.8902 3.54688 24.9994Z" fill="#175CFF"/>
<path d="M39.4116 23.9172C39.4116 21.2667 38.4611 19.4311 37.6459 18.0024C36.5606 16.2358 35.5433 14.7398 35.5433 12.9732C35.5433 11.0017 37.036 9.16653 39.1387 9.16653C39.2336 9.16653 39.3236 9.17837 39.4161 9.18367C35.6068 5.688 30.5318 3.55371 24.9576 3.55371C17.4776 3.55371 10.8968 7.39789 7.06836 13.2205C7.57069 13.2356 8.0441 13.2462 8.44621 13.2462C10.6857 13.2462 14.1524 12.974 14.1524 12.974C15.3065 12.9058 15.4426 14.6039 14.2897 14.7406C14.2897 14.7406 13.1298 14.8773 11.8391 14.945L19.6361 38.1754L24.3217 24.0992L20.9858 14.9442C19.8328 14.8765 18.7406 14.7398 18.7406 14.7398C17.5868 14.672 17.7221 12.905 18.8758 12.9732C18.8758 12.9732 22.4117 13.2454 24.5156 13.2454C26.7547 13.2454 30.2217 12.9732 30.2217 12.9732C31.3767 12.905 31.5124 14.6031 30.359 14.7398C30.359 14.7398 29.1967 14.8765 27.9085 14.9442L35.646 37.9987L37.7816 30.8502C38.7072 27.8838 39.4116 25.7532 39.4116 23.9172Z" fill="#175CFF"/>
<path d="M25.3342 26.8752L18.9102 45.5734C20.8282 46.1382 22.8567 46.4471 24.9585 46.4471C27.4519 46.4471 29.8429 46.0153 32.0686 45.2314C32.0112 45.1396 31.959 45.042 31.9162 44.9359L25.3342 26.8752Z" fill="#175CFF"/>
<path d="M43.7465 14.71C43.8386 15.3931 43.8908 16.1264 43.8908 16.9153C43.8908 19.0916 43.485 21.5381 42.2628 24.5971L35.7227 43.5376C42.088 39.8195 46.3694 32.9118 46.3694 24.9999C46.3698 21.2712 45.419 17.7649 43.7465 14.71Z" fill="#175CFF"/>
<path d="M24.9586 0C11.1968 0 0 11.2146 0 24.9994C0 38.7858 11.1968 50 24.9586 50C38.72 50 49.9184 38.7858 49.9184 24.9994C49.918 11.2146 38.72 0 24.9586 0ZM24.9586 48.8541C11.8279 48.8541 1.14441 38.1528 1.14441 24.9994C1.14441 11.8468 11.8274 1.14632 24.9586 1.14632C38.0889 1.14632 48.7716 11.8468 48.7716 24.9994C48.7716 38.1528 38.0889 48.8541 24.9586 48.8541Z" fill="#175CFF"/>
</g>
<defs>
<clipPath id="clip0_545_6424">
<rect width="220" height="50" fill="white"/>
</clipPath>
</defs>
</svg>
